<svg width="341" height="202" viewBox="0 0 341 202" fill="none" xmlns="http://www.w3.org/2000/svg">
<path fill-rule="evenodd" clip-rule="evenodd" d="M316.425 2.40332H26.4173C26.3095 5.12994 25.6843 7.81771 24.5701 10.3394C23.3402 13.1229 21.5394 15.6476 19.274 17.7714C17.0086 19.895 14.3227 21.5763 11.3712 22.7224C8.41968 23.8685 5.2583 24.4577 2.06702 24.4577V22.4577C5.01296 22.4577 7.9287 21.9137 10.6472 20.8581C13.3657 19.8025 15.8318 18.2568 17.9061 16.3122C19.9803 14.3678 21.622 12.0629 22.7407 9.53109C23.8593 6.99943 24.4341 4.28852 24.4341 1.55251H25.2075V0.40332H317.863V1.55251H318.408C318.408 4.28852 318.983 6.99943 320.102 9.53109C321.22 12.0629 322.862 14.3678 324.936 16.3122C327.011 18.2568 329.477 19.8025 332.195 20.8581C334.914 21.9137 337.829 22.4577 340.775 22.4577V24.4577C340.7 24.4577 340.625 24.4573 340.549 24.4567V177.072C340.625 177.071 340.7 177.071 340.775 177.071V179.071C337.829 179.071 334.914 179.615 332.195 180.67C329.477 181.726 327.011 183.272 324.936 185.216C322.862 187.161 321.22 189.466 320.102 191.997C318.983 194.529 318.408 197.24 318.408 199.976H317.636V201.125L24.9808 201.125V199.976H24.4341C24.4341 197.24 23.8593 194.529 22.7407 191.997C21.622 189.466 19.9803 187.161 17.9061 185.216C15.8318 183.272 13.3657 181.726 10.6472 180.67C7.92869 179.615 5.01296 179.071 2.06702 179.071L2.06702 177.071C5.2583 177.071 8.41968 177.66 11.3712 178.806C14.3227 179.952 17.0086 181.634 19.2739 183.757C21.5394 185.881 23.3402 188.406 24.5701 191.189C25.6843 193.711 26.3095 196.399 26.4173 199.125L316.425 199.125C316.533 196.399 317.158 193.711 318.272 191.189C319.502 188.406 321.303 185.881 323.568 183.757C325.834 181.634 328.52 179.952 331.471 178.806C333.734 177.927 336.121 177.376 338.549 177.167V24.3619C336.121 24.1525 333.734 23.6012 331.471 22.7224C328.52 21.5763 325.834 19.895 323.568 17.7714C321.303 15.6476 319.502 13.1229 318.272 10.3394C317.158 7.81771 316.533 5.12994 316.425 2.40332ZM2.0669 178.069L2.06689 23.2446H0.0668945L0.0669002 178.069H2.0669Z" fill="url(#paint0_radial_455_3)"/>
<defs>
<radialGradient id="paint0_radial_455_3" cx="0" cy="0" r="1" gradientUnits="userSpaceOnUse" gradientTransform="translate(44.2543 22.604) rotate(33.0544) scale(353.317 325.394)">
<stop stop-color="#E68E0B"/>
<stop offset="1" stop-color="#FFFBE7" stop-opacity="0.17"/>
</radialGradient>
</defs>
</svg>
