<svg width="203" height="216" viewBox="0 0 203 216" fill="none" xmlns="http://www.w3.org/2000/svg">
<path d="M12.1935 65.8159C4.42147 79.9019 0 96.033 0 113.186C0 130.339 4.42147 146.485 12.1935 160.571V65.8159Z" fill="#E5E5E5"/>
<path d="M101.25 13.6499C93.0342 13.6499 85.0632 14.6421 77.4141 16.4461V32.1109C84.9869 29.9762 92.9728 28.8036 101.25 28.8036C148.647 28.8036 187.078 66.4622 187.078 112.931C187.078 133.857 179.26 152.995 166.363 167.712L163.915 176.296L158.499 195.298C185.074 177.364 202.515 147.282 202.515 113.201C202.5 58.2089 157.169 13.6499 101.25 13.6499Z" fill="#E5E5E5"/>
<path d="M77.4141 164.841H155.072H156.77C169.913 151.341 178.006 133.06 178.006 112.931C178.006 71.3785 143.644 37.7034 101.25 37.7034C92.9269 37.7034 84.9255 39.0263 77.4141 41.4166V164.841Z" fill="#E5E5E5"/>
<path d="M68.2344 0H10.4645L21.3728 22.2645V193.751L10.4645 216H143.047L155.073 173.861H68.2344V0Z" fill="#E5E5E5"/>
</svg>
