<svg width="118" height="138" viewBox="0 0 118 138" fill="none" xmlns="http://www.w3.org/2000/svg">
<path d="M52.6035 30.3776H60.1482C60.1482 30.3776 68.908 29.9058 69.2139 39.7349C69.5192 49.5637 65.8863 57.5058 52.6035 66.3489V30.3776Z" fill="#E5E5E5"/>
<path fill-rule="evenodd" clip-rule="evenodd" d="M93.5272 0.290338L116.429 11.1779C116.943 11.4292 117.366 11.8209 117.643 12.3028C117.921 12.7847 118.041 13.3345 117.988 13.8817L113.585 61.6662C113.551 62.0615 113.426 62.445 113.22 62.7902C113.013 63.1348 112.729 63.4324 112.389 63.6622C109.972 65.3073 104.246 69.6445 104.246 76.1282C104.246 82.9758 108.012 88.0142 109.704 89.9196C109.956 90.2073 110.141 90.5406 110.251 90.8997C110.36 91.2589 110.391 91.6356 110.341 92.0061L106.886 118.814C106.823 119.302 106.623 119.764 106.308 120.154C105.992 120.543 105.573 120.845 105.093 121.028L105.039 121.048C97.6635 123.841 67.5215 135.254 59.9824 137.837C59.3469 138.054 58.6516 138.054 58.0166 137.837C50.6357 135.313 21.6967 124.354 13.5022 121.251L12.9129 121.028C12.4329 120.845 12.0132 120.543 11.6976 120.154C11.382 119.764 11.1822 119.302 11.119 118.814L7.65824 92.0061C7.60791 91.6356 7.63838 91.2589 7.74785 90.8997C7.85731 90.5406 8.04333 90.2073 8.29439 89.9196C9.9802 88.0142 13.7463 82.9758 13.7463 76.1282C13.7463 69.6445 8.04631 65.3073 5.6098 63.6622C5.26863 63.4329 4.98422 63.1353 4.77657 62.7907C4.56887 62.4455 4.44293 62.062 4.40747 61.6662L0.011615 13.8817C-0.0405944 13.3304 0.084019 12.777 0.369044 12.2944C0.654069 11.8118 1.08615 11.4225 1.60837 11.1779L24.561 0.290338C24.9555 0.100628 25.3912 0.00120578 25.8333 0H92.2545C92.697 0.00187335 93.1323 0.101259 93.5272 0.290338ZM69.3529 112.384H91.2434C91.3617 112.374 91.4751 112.333 91.5703 112.264C91.6654 112.195 91.7384 112.103 91.781 111.997C91.8231 111.891 91.8336 111.776 91.8103 111.665C91.7871 111.554 91.7318 111.451 91.6505 111.368C89.3307 109.401 87.5789 106.902 86.5612 104.109L72.2347 66.5653C89.6847 45.9033 83.0494 30.2736 83.0494 30.2736C81.2683 25.6221 76.9617 22.1623 71.7258 20.8437C68.1006 19.9915 64.3781 19.5729 60.644 19.5976H34.1797C34.0237 19.5915 33.8689 19.6269 33.7329 19.6997C33.5968 19.7727 33.4848 19.8801 33.4095 20.0102C33.3341 20.1403 33.2984 20.2878 33.3064 20.4361C33.3143 20.5844 33.3656 20.7277 33.4545 20.8497C34.9367 22.9063 38.1175 28.4045 38.1175 30.697V103.348C38.1175 106.12 35.691 109.128 34.0282 111.188C33.9608 111.272 33.8945 111.354 33.8298 111.435C33.763 111.526 33.7241 111.633 33.7174 111.745C33.7106 111.856 33.7363 111.967 33.7915 112.065C33.8468 112.163 33.9295 112.245 34.0306 112.301C34.1316 112.357 34.247 112.386 34.3642 112.384H56.3434C56.4607 112.386 56.5763 112.357 56.677 112.301C56.7782 112.245 56.8612 112.163 56.9159 112.065C56.9712 111.967 56.9972 111.856 56.9906 111.745C56.9834 111.633 56.9447 111.526 56.8778 111.435L56.7876 111.324C55.1243 109.283 52.5965 106.181 52.5965 103.348V82.6855L61.0002 75.9652L71.535 103.759C72.0743 105.908 70.7368 108.144 69.6157 110.02C69.2948 110.556 68.9917 111.064 68.755 111.531C68.7107 111.625 68.6919 111.727 68.7013 111.83C68.7102 111.931 68.7461 112.03 68.8059 112.115C68.8656 112.2 68.9469 112.27 69.0426 112.317C69.1383 112.364 69.2451 112.387 69.3529 112.384Z" fill="#E5E5E5"/>
</svg>
