<svg width="879" height="137" viewBox="0 0 879 137" fill="none" xmlns="http://www.w3.org/2000/svg">
<path fill-rule="evenodd" clip-rule="evenodd" d="M566.648 19L567.002 18.6465L567.355 19H837.855V20H567.063L511.709 75.3536L511.563 75.5H511.355H475.355V74.5H511.148L565.648 20H510.855V19H566.648ZM316.063 20.0001L370.563 74.5001H406.355V75.5001H370.355H370.148L370.002 75.3536L314.648 20.0001H43.8555V19.0001H314.355L314.709 18.6465L315.063 19.0001H370.855V20.0001H316.063Z" fill="url(#paint0_radial_231_239)"/>
<path fill-rule="evenodd" clip-rule="evenodd" d="M353.416 0H0.855469V4H155.941L182.148 30.2071L182.441 30.5H182.855H379.087L403.355 54.7682V100V100.828L403.941 101.414L438.941 136.414L439.886 135.47L440.83 136.414L475.83 101.414L476.416 100.828V100V54.7682L500.684 30.5H696.916H697.33L697.623 30.2071L723.83 4H878.916V0H526.356H525.527L524.942 0.585786L497.027 28.5H451.416H451.002L450.709 28.7929L439.886 39.6161L429.063 28.7929L428.77 28.5H428.355H382.744L354.83 0.585786L354.244 0H353.416ZM439.886 41.9697L439.648 42.2071L427.941 30.5H384.744L439.886 85.6416L495.027 30.5H451.83L440.123 42.2071L439.886 41.9697ZM502.684 28.5H696.502L721.002 4H527.184L502.684 28.5ZM440.77 90.4142L472.416 58.7682V99.1716L439.886 131.702L407.355 99.1716V58.7682L439.001 90.4142L439.886 89.53L440.77 90.4142ZM183.27 28.5L158.77 4H352.587L377.087 28.5H183.27Z" fill="url(#paint1_radial_231_239)"/>
<defs>
<radialGradient id="paint0_radial_231_239" cx="0" cy="0" r="1" gradientUnits="userSpaceOnUse" gradientTransform="translate(440.355 18.6465) scale(270.621 81.6646)">
<stop stop-color="#5C5448"/>
<stop offset="1" stop-color="#FFFBE7" stop-opacity="0"/>
</radialGradient>
<radialGradient id="paint1_radial_231_239" cx="0" cy="0" r="1" gradientUnits="userSpaceOnUse" gradientTransform="translate(440.355 33.5) scale(439 114.853)">
<stop stop-color="#FDB13F"/>
<stop offset="1" stop-color="#FFFBE7" stop-opacity="0"/>
</radialGradient>
</defs>
</svg>
