<svg width="227" height="228" viewBox="0 0 227 228" fill="none" xmlns="http://www.w3.org/2000/svg">
<path d="M227 0C225.975 2.11675 225.084 4.31013 223.916 6.34068C216.512 19.1561 209.003 31.962 201.771 44.8828C200.134 47.8137 198.237 48.714 194.981 48.714C177.453 48.5608 159.915 48.647 141.765 48.647V169.934C137.685 169.168 134.275 168.794 131.009 167.884C115.473 163.517 101.489 155.988 88.712 146.267C87.1891 145.117 86.2217 142.311 86.2121 140.261C86.0493 111.891 86.1068 83.5303 86.1068 55.16V48.896C84.1911 48.8002 82.5724 48.647 80.8963 48.647C65.4277 48.647 49.9592 48.4554 34.5002 48.7427C29.8261 48.8289 27.1251 47.6125 24.788 43.3024C17.8248 30.4199 10.2868 17.8439 2.94046 5.17215C2.08802 3.69713 0.957806 2.3562 0 0.957806C1.39905 0.487935 2.84375 0.166892 4.31013 0C78.5273 0 152.757 0 227 0Z" fill="#E5E5E5"/>
<path d="M53.0241 178.813C55.2462 179.953 57.4971 181.035 59.6617 182.261C80.2929 193.927 101.604 203.927 125.176 208.122C129.064 208.811 133.116 208.61 137.1 208.821L137.646 206.733C134.936 205.469 132.321 203.965 129.515 202.978C102.162 193.519 76.7875 179.099 54.662 160.442C42.5362 150.203 31.6746 138.805 23.5429 125.003C18.8113 116.948 15.1812 108.491 15.277 98.9031C15.3728 90.4744 18.8017 83.6836 25.947 79.1819C38.2165 71.4332 51.415 71.3758 65.1308 75.4848C64.355 75.571 63.5791 75.6955 62.7937 75.7338C61.9786 75.661 61.1597 75.6387 60.3418 75.6667C53.7808 76.7203 46.9325 76.9694 40.7546 79.1148C32.3643 81.9883 28.648 89.5741 30.2188 98.271C30.9885 102.493 32.3188 106.594 34.1745 110.464C36.2657 114.941 38.883 119.153 41.971 123.011C67.7169 154.092 99.6884 175.882 139.026 185.824C147.398 187.761 156.038 188.27 164.58 187.328C179.809 185.872 186.341 174.522 180.795 160.203C178.698 154.782 175.231 149.868 172.338 144.753C171.361 143.318 170.566 141.768 169.972 140.137C176.045 143.182 180.345 148.134 184.176 153.441C188.008 158.747 191.465 164.36 195.086 169.838L196.724 169.436C196.724 167.099 197.413 164.494 196.599 162.492C193.726 155.452 191.264 147.972 186.925 141.88C180.403 132.714 172.434 124.572 165.049 116.019C163.67 114.42 162.176 112.954 161.352 110.608C162.634 111.072 163.883 111.625 165.087 112.265C185.719 124.917 201.915 141.727 212.02 163.842C214.686 169.798 216.505 176.098 217.422 182.558C220.295 202.03 210.66 217.326 191.983 223.839C176.61 229.203 160.873 228.628 145.165 225.755C114.559 220.369 85.7198 207.629 61.1272 188.63C58.4206 186.403 55.8371 184.031 53.3881 181.523C52.9099 180.916 52.5168 180.245 52.2196 179.531L53.0241 178.813Z" fill="#E5E5E5"/>
</svg>
