<svg width="108" height="119" viewBox="0 0 108 119" fill="none" xmlns="http://www.w3.org/2000/svg">
<path d="M6.48761 35.9746C2.35247 43.6737 0 52.4906 0 61.8661C0 71.2416 2.35247 80.0666 6.48761 87.7656V35.9746Z" fill="#B1915B"/>
<path d="M53.8699 7.46191C49.4989 7.46191 45.2579 8.00422 41.1882 8.99024V17.5522C45.2173 16.3854 49.4662 15.7445 53.8699 15.7445C79.0875 15.7445 99.5348 36.3277 99.5348 61.7262C99.5348 73.164 95.3753 83.6241 88.5133 91.6684L87.2111 96.3602L84.3294 106.746C98.4685 96.9434 107.748 80.5014 107.748 61.8738C107.74 31.8167 83.6216 7.46191 53.8699 7.46191Z" fill="#B1915B"/>
<path d="M41.1882 90.1006H82.5061H83.4097C90.402 82.7216 94.708 72.7294 94.708 61.727C94.708 39.0149 76.4256 20.6084 53.8699 20.6084C49.4418 20.6084 45.1846 21.3315 41.1882 22.638V90.1006Z" fill="#B1915B"/>
<path d="M36.3041 0H5.56769L11.3715 12.1693V105.9L5.56769 118.062H76.1083L82.5063 95.0292H36.3041V0Z" fill="#B1915B"/>
</svg>
