<svg width="357" height="95" viewBox="0 0 357 95" fill="none" xmlns="http://www.w3.org/2000/svg">
<g filter="url(#filter0_d_231_238)">
<path d="M46.0554 11.6759H40.3568L15 70.7643H26.302C31.573 61.4218 36.2262 58.0723 42.7295 58.0723C49.2328 58.0723 53.889 61.4218 59.2074 70.7643H71.4211L46.0554 11.6759ZM42.8245 55.0368C39.3646 55.0758 35.9404 55.6165 32.7103 56.6337L42.8245 32.8537L52.7487 56.6361C49.5844 55.6194 46.2228 55.0777 42.8245 55.0368Z" fill="#DAC092"/>
<path d="M112.639 31.1761C110.474 35.0295 109.242 39.4423 109.242 44.1346C109.242 48.827 110.474 53.2439 112.639 57.0972V31.1761Z" fill="#DAC092"/>
<path d="M137.449 16.9058C135.161 16.9058 132.94 17.1772 130.809 17.6707V21.956C132.919 21.372 135.143 21.0512 137.449 21.0512C150.654 21.0512 161.36 31.353 161.36 44.0649C161.36 49.7894 159.182 55.0247 155.589 59.0508L154.907 61.399L153.398 66.5971C160.802 61.6909 165.661 53.4618 165.661 44.1387C165.656 29.0953 153.028 16.9058 137.449 16.9058Z" fill="#DAC092"/>
<path d="M130.809 58.2653H152.444H152.917C156.578 54.5723 158.833 49.5714 158.833 44.0649C158.833 32.6979 149.26 23.4858 137.449 23.4858C135.131 23.4858 132.902 23.8477 130.809 24.5016V58.2653Z" fill="#DAC092"/>
<path d="M128.252 13.1718H112.158L115.197 19.2624V66.1737L112.158 72.2602H149.094L152.444 60.7328H128.252V13.1718Z" fill="#DAC092"/>
<path d="M220.408 29.9186H224.015C224.015 29.9186 228.204 29.7166 228.35 33.9252C228.496 38.1337 226.759 41.5343 220.408 45.3207V29.9186Z" fill="#DAC092"/>
<path fill-rule="evenodd" clip-rule="evenodd" d="M239.975 17.0359L250.924 21.6977C251.17 21.8053 251.372 21.973 251.505 22.1793C251.638 22.3857 251.695 22.6211 251.669 22.8554L249.565 43.3156C249.548 43.4849 249.488 43.6491 249.39 43.7969C249.291 43.9444 249.156 44.0719 248.993 44.1702C247.837 44.8746 245.099 46.7317 245.099 49.5079C245.099 52.4399 246.9 54.5972 247.709 55.4131C247.829 55.5363 247.918 55.679 247.97 55.8327C248.023 55.9865 248.037 56.1478 248.013 56.3065L246.362 67.7849C246.332 67.9938 246.236 68.1919 246.085 68.3588C245.934 68.5254 245.734 68.6546 245.504 68.7328L245.479 68.7414C241.952 69.9373 227.541 74.8243 223.936 75.9302C223.632 76.0233 223.3 76.0233 222.996 75.9302C219.467 74.8493 205.631 70.1571 201.713 68.8283L201.431 68.7328C201.202 68.6546 201.001 68.5254 200.85 68.3588C200.699 68.1919 200.604 67.9938 200.573 67.7849L198.919 56.3065C198.895 56.1478 198.909 55.9865 198.962 55.8327C199.014 55.679 199.103 55.5363 199.223 55.4131C200.029 54.5972 201.83 52.4399 201.83 49.5079C201.83 46.7317 199.104 44.8746 197.939 44.1702C197.776 44.0721 197.64 43.9447 197.541 43.7971C197.442 43.6493 197.381 43.4851 197.365 43.3156L195.263 22.8554C195.238 22.6193 195.297 22.3824 195.434 22.1757C195.57 21.9691 195.777 21.8024 196.026 21.6977L207 17.0359C207.189 16.9546 207.397 16.9121 207.609 16.9116H239.366C239.578 16.9124 239.786 16.9549 239.975 17.0359ZM228.416 65.0319H238.883C238.939 65.0275 238.993 65.0098 239.039 64.9803C239.084 64.9511 239.119 64.9114 239.14 64.8662C239.16 64.8208 239.165 64.7714 239.154 64.7239C239.143 64.6763 239.116 64.6322 239.077 64.5967C237.968 63.7545 237.131 62.6845 236.644 61.4888L229.794 45.4133C238.137 36.5663 234.965 29.874 234.965 29.874C234.113 27.8824 232.054 26.401 229.551 25.8363C227.818 25.4715 226.038 25.2922 224.252 25.3028H211.599C211.525 25.3002 211.451 25.3153 211.386 25.3465C211.321 25.3778 211.267 25.4238 211.231 25.4795C211.195 25.5352 211.178 25.5983 211.182 25.6618C211.185 25.7253 211.21 25.7867 211.252 25.8389C211.961 26.7195 213.482 29.0737 213.482 30.0553V61.1627C213.482 62.3497 212.322 63.6375 211.527 64.5199C211.495 64.5558 211.463 64.5908 211.432 64.6253C211.4 64.6645 211.381 64.7104 211.378 64.7581C211.375 64.8057 211.387 64.8531 211.414 64.8952C211.44 64.9371 211.48 64.9721 211.528 64.9963C211.576 65.0204 211.631 65.0328 211.687 65.0319H222.196C222.252 65.0328 222.308 65.0204 222.356 64.9963C222.404 64.9721 222.444 64.9371 222.47 64.8952C222.496 64.8531 222.509 64.8057 222.506 64.7581C222.502 64.7104 222.484 64.6645 222.452 64.6253L222.409 64.5779C221.613 63.704 220.405 62.3758 220.405 61.1627V52.3156L224.423 49.4381L229.46 61.3386C229.717 62.2588 229.078 63.2165 228.542 64.0195C228.389 64.2493 228.244 64.4667 228.13 64.6668C228.109 64.7066 228.1 64.7505 228.105 64.7944C228.109 64.838 228.126 64.8801 228.155 64.9167C228.183 64.953 228.222 64.983 228.268 65.0031C228.314 65.0233 228.365 65.033 228.416 65.0319Z" fill="#DAC092"/>
<path d="M341.43 16.9116C341.175 17.4604 340.954 18.029 340.663 18.5555C338.823 21.8781 336.957 25.1982 335.16 28.5481C334.753 29.308 334.281 29.5414 333.472 29.5414C329.116 29.5017 324.757 29.5241 320.246 29.5241V60.9696C319.232 60.771 318.384 60.6741 317.572 60.4382C313.711 59.3059 310.236 57.354 307.06 54.8335C306.682 54.5355 306.441 53.8079 306.439 53.2765C306.398 45.9211 306.413 38.5681 306.413 31.2127V29.5886C305.936 29.5638 305.534 29.5241 305.118 29.5241C301.273 29.5241 297.428 29.4744 293.586 29.5489C292.425 29.5712 291.753 29.2559 291.172 28.1384C289.442 24.7984 287.568 21.5379 285.743 18.2525C285.531 17.8701 285.25 17.5224 285.012 17.1599C285.359 17.0381 285.718 16.9548 286.083 16.9116C304.529 16.9116 322.978 16.9116 341.43 16.9116Z" fill="#DAC092"/>
<path d="M298.19 63.2716C298.743 63.5672 299.302 63.8478 299.84 64.1656C304.968 67.1902 310.264 69.7828 316.123 70.8704C317.089 71.0492 318.096 70.9971 319.086 71.0517L319.222 70.5104C318.548 70.1826 317.899 69.7927 317.201 69.5369C310.403 67.0844 304.096 63.3459 298.597 58.5087C295.584 55.8541 292.884 52.899 290.863 49.3207C289.687 47.2322 288.785 45.0395 288.809 42.5538C288.832 40.3685 289.685 38.6079 291.461 37.4407C294.51 35.4318 297.79 35.4169 301.199 36.4822C301.006 36.5045 300.814 36.5368 300.618 36.5468C300.416 36.5279 300.212 36.5221 300.009 36.5294C298.378 36.8025 296.676 36.8671 295.141 37.4233C293.055 38.1683 292.132 40.1351 292.522 42.3899C292.714 43.4846 293.044 44.5477 293.505 45.5511C294.025 46.7119 294.676 47.8039 295.443 48.8041C301.842 56.8623 309.788 62.5118 319.565 65.0894C321.646 65.5917 323.793 65.7235 325.916 65.4793C329.701 65.1018 331.325 62.1591 329.946 58.4467C329.425 57.0411 328.563 55.7672 327.844 54.4412C327.602 54.0691 327.404 53.6671 327.256 53.2442C328.766 54.0339 329.834 55.3177 330.787 56.6935C331.739 58.0692 332.598 59.5244 333.498 60.9448L333.905 60.8405C333.905 60.2346 334.077 59.5592 333.874 59.0402C333.16 57.215 332.548 55.2755 331.47 53.6962C329.849 51.3197 327.868 49.2089 326.033 46.9914C325.69 46.5767 325.319 46.1967 325.114 45.5883C325.433 45.7086 325.743 45.8522 326.042 46.0179C331.17 49.2983 335.195 53.6564 337.707 59.3903C338.37 60.9343 338.822 62.5677 339.049 64.2426C339.764 69.2911 337.369 73.2569 332.727 74.9455C328.906 76.3361 324.995 76.1871 321.091 75.4421C313.484 74.0457 306.316 70.7426 300.204 65.817C299.531 65.2396 298.889 64.6245 298.281 63.9744C298.162 63.8168 298.064 63.643 297.99 63.4579L298.19 63.2716Z" fill="#DAC092"/>
</g>
<defs>
<filter id="filter0_d_231_238" x="0" y="0.675903" width="356.43" height="94.3241" filterUnits="userSpaceOnUse" color-interpolation-filters="sRGB">
<feFlood flood-opacity="0" result="BackgroundImageFix"/>
<feColorMatrix in="SourceAlpha" type="matrix" values="0 0 0 0 0 0 0 0 0 0 0 0 0 0 0 0 0 0 127 0" result="hardAlpha"/>
<feOffset dy="4"/>
<feGaussianBlur stdDeviation="7.5"/>
<feComposite in2="hardAlpha" operator="out"/>
<feColorMatrix type="matrix" values="0 0 0 0 0 0 0 0 0 0 0 0 0 0 0 0 0 0 0.45 0"/>
<feBlend mode="normal" in2="BackgroundImageFix" result="effect1_dropShadow_231_238"/>
<feBlend mode="normal" in="SourceGraphic" in2="effect1_dropShadow_231_238" result="shape"/>
</filter>
</defs>
</svg>
