<svg width="1438" height="1996" viewBox="0 0 1438 1996" fill="none" xmlns="http://www.w3.org/2000/svg">
<g clip-path="url(#clip0_307_298)">
<path d="M1401.99 1933.78L1402.79 1935.04L1404.57 1933.91L1402.92 1932.6L1401.99 1933.78ZM1325.25 1848.4L1326.54 1847.63L1325.25 1848.4ZM1400.3 1934.85L1399.37 1936.02L1400.2 1936.69L1401.1 1936.11L1400.3 1934.85ZM1323.14 1848.99L1324.42 1848.22L1323.14 1848.99ZM1292.16 1754.29L1290.67 1754.38L1292.16 1754.29ZM1312.13 1665.14L1310.81 1664.41L1312.13 1665.14ZM1345.35 1622.22L1346.39 1623.3L1346.85 1622.86L1346.85 1622.23L1345.35 1622.22ZM1350.79 261.711L1352.29 261.717L1352.29 260.649L1351.28 260.296L1350.79 261.711ZM1324.45 250.23L1323.71 251.535L1324.45 250.23ZM1261.96 193.077L1263.17 192.192L1261.96 193.077ZM1220.68 108.188L1222.12 107.758L1220.68 108.188ZM1213.25 78.198L1214.72 77.9059L1214.48 76.704L1213.25 76.6981L1213.25 78.198ZM573.867 75.0678L573.874 73.5678L573.177 73.5644L572.724 74.0957L573.867 75.0678ZM531.394 111.999L532.185 113.273L532.185 113.273L531.394 111.999ZM443.384 136.527L443.372 138.027L443.384 136.527ZM347.214 110.468L346.51 111.793L347.214 110.468ZM257.501 37.8299L256.195 37.0918L255.67 38.0209L256.376 38.8216L257.501 37.8299ZM258.485 36.0889L259.611 35.0972L258.217 33.5155L257.18 35.3508L258.485 36.0889ZM347.702 108.327L348.406 107.002L347.702 108.327ZM443.276 134.228L443.289 132.728L443.276 134.228ZM530.635 109.888L531.427 111.162L530.635 109.888ZM571.213 75.0548L572.344 76.0403L574.496 73.571L571.221 73.5549L571.213 75.0548ZM350.724 73.9755L349.224 73.9758L349.224 75.4681L350.717 75.4754L350.724 73.9755ZM350.724 71.9754L350.731 70.4754L349.223 70.4681L349.224 71.9757L350.724 71.9754ZM572.926 73.0632L572.919 74.5632L573.618 74.5666L574.07 74.0337L572.926 73.0632ZM593.809 43.7024L595.098 44.4698L596.441 42.2151L593.817 42.2024L593.809 43.7024ZM345.11 42.5082L343.61 42.5102L343.612 44.001L345.102 44.0082L345.11 42.5082ZM345.107 40.5083L345.114 39.0083L343.605 39.0011L343.607 40.5103L345.107 40.5083ZM594.984 41.7081L594.976 43.2081L595.844 43.2123L596.28 42.4629L594.984 41.7081ZM595.483 40.8474L596.782 41.597L596.782 41.5968L595.483 40.8474ZM595.843 40.2198L597.145 40.9653L597.145 40.9652L595.843 40.2198ZM596.172 39.6441L594.868 38.9024L594.868 38.9025L596.172 39.6441ZM596.5 39.0648L597.626 38.073L596.232 36.4917L595.195 38.3264L596.5 39.0648ZM597.823 40.5652L599.128 41.3034L599.654 40.3743L598.948 39.5734L597.823 40.5652ZM597.166 41.7187L595.865 40.9735L594.586 43.2063L597.159 43.2187L597.166 41.7187ZM1208.31 44.6532L1208.31 46.1532L1209.97 46.1612L1209.81 44.5085L1208.31 44.6532ZM1206.69 8.4537L1206.7 6.95374L1205.2 6.94329L1205.19 8.44325L1206.69 8.4537ZM1211.69 8.48852L1213.19 8.49897L1213.2 6.999L1211.7 6.98856L1211.69 8.48852ZM1213.34 44.6774L1211.85 44.8243L1211.98 46.1709L1213.33 46.1774L1213.34 44.6774ZM1253.1 44.8683L1253.09 46.3683L1254.6 46.3755L1254.6 44.8728L1253.1 44.8683ZM1253.11 43.8894L1253.12 42.3894L1251.62 42.3789L1251.61 43.8789L1253.11 43.8894ZM1255.11 43.9033L1256.61 43.9137L1256.62 42.4138L1255.12 42.4033L1255.11 43.9033ZM1255.1 44.878L1253.6 44.8735L1253.6 46.3707L1255.09 46.378L1255.1 44.878ZM1387.94 45.5159L1387.93 47.0159L1389.43 47.023L1389.44 45.5264L1387.94 45.5159ZM1388.31 -8.26672L1388.32 -9.76669L1386.82 -9.77713L1386.81 -8.27717L1388.31 -8.26672ZM1390.31 -8.25279L1391.81 -8.24235L1391.82 -9.74231L1390.32 -9.75276L1390.31 -8.25279ZM1389.94 45.5254L1388.44 45.515L1388.43 47.0183L1389.93 47.0254L1389.94 45.5254ZM1460.17 45.8627L1461.67 45.8607L1461.67 44.3699L1460.18 44.3627L1460.17 45.8627ZM1460.18 47.8627L1460.17 49.3627L1461.68 49.3699L1461.68 47.8607L1460.18 47.8627ZM1389.93 47.5253L1389.93 46.0253L1388.44 46.0182L1388.43 47.5148L1389.93 47.5253ZM1388.72 221.173L1387.22 221.163L1387.21 222.633L1388.68 222.673L1388.72 221.173ZM1389.72 221.191L1391.22 221.201L1391.23 219.701L1389.73 219.691L1389.72 221.191ZM1389.7 223.191L1389.69 224.691L1391.19 224.701L1391.2 223.201L1389.7 223.191ZM1388.7 223.174L1388.74 221.674L1387.21 221.634L1387.2 223.163L1388.7 223.174ZM1388.4 267.085L1386.9 267.075L1386.89 268.296L1388.08 268.552L1388.4 267.085ZM1421.37 271.455L1422.87 271.466L1422.88 269.966L1421.38 269.955L1421.37 271.455ZM1421.33 276.455L1421.32 277.955L1422.82 277.965L1422.83 276.465L1421.33 276.455ZM1388.36 272.19L1388.67 270.722L1386.87 270.343L1386.86 272.18L1388.36 272.19ZM1379.14 1595.7L1377.64 1595.68L1377.62 1598.45L1379.95 1596.96L1379.14 1595.7ZM1380.05 1595.12L1380.98 1593.94L1380.14 1593.28L1379.24 1593.85L1380.05 1595.12ZM1381.61 1596.36L1382.42 1597.63L1384.2 1596.5L1382.54 1595.19L1381.61 1596.36ZM1379.13 1597.96L1378.31 1596.71L1377.63 1597.15L1377.63 1597.95L1379.13 1597.96ZM1377.54 1825.94L1377.53 1827.44L1379.03 1827.45L1379.04 1825.95L1377.54 1825.94ZM1375.54 1825.93L1374.04 1825.92L1374.03 1827.42L1375.53 1827.43L1375.54 1825.93ZM1377.12 1599.29L1378.62 1599.3L1378.64 1596.47L1376.29 1598.04L1377.12 1599.29ZM1347.35 1623.11L1346.31 1622.03L1345.85 1622.47L1345.85 1623.1L1347.35 1623.11ZM1346.53 1826.89L1346.59 1828.39L1348.03 1828.33L1348.03 1826.89L1346.53 1826.89ZM1344.53 1826.96L1343.03 1826.95L1343.03 1828.52L1344.59 1828.46L1344.53 1826.96ZM1345.34 1625.06L1346.84 1625.07L1346.85 1621.46L1344.28 1624L1345.34 1625.06ZM1314.27 1665.79L1315.59 1666.51L1314.27 1665.79ZM1294.46 1754.28L1292.97 1754.37L1294.46 1754.28ZM1377.13 1597L1377.96 1598.25L1378.63 1597.81L1378.63 1597.01L1377.13 1597ZM1347.36 1620.32L1345.86 1620.31L1345.84 1623.79L1348.38 1621.41L1347.36 1620.32ZM1386.36 271.761L1387.86 271.772L1387.87 270.555L1386.68 270.296L1386.36 271.761ZM1372.12 268.286L1372.51 266.837L1372.51 266.837L1372.12 268.286ZM1352.78 262.403L1353.27 260.984L1351.29 260.307L1351.28 262.397L1352.78 262.403ZM1351.31 129.966L1351.26 128.467L1349.82 128.519L1349.81 129.96L1351.31 129.966ZM1350.98 213.382L1350.51 214.807L1352.47 215.455L1352.48 213.388L1350.98 213.382ZM1353.31 129.893L1354.81 129.899L1354.82 128.337L1353.26 128.394L1353.31 129.893ZM1352.98 214.029L1351.48 214.023L1351.47 215.125L1352.52 215.458L1352.98 214.029ZM1358.92 215.809L1358.51 217.253L1358.51 217.253L1358.92 215.809ZM1386.72 221.084L1386.62 222.581L1388.21 222.678L1388.22 221.094L1386.72 221.084ZM1387.93 47.5157L1389.43 47.5262L1389.44 46.0229L1387.93 46.0157L1387.93 47.5157ZM1255.1 46.8779L1255.11 45.378L1253.59 45.3707L1253.6 46.8857L1255.1 46.8779ZM1257.05 76.4124L1255.56 76.6026L1255.73 77.9059L1257.04 77.9124L1257.05 76.4124ZM1328.71 76.7633L1330.21 76.763L1330.21 75.2706L1328.72 75.2633L1328.71 76.7633ZM1328.71 78.7633L1328.71 80.2633L1330.21 80.2706L1330.21 78.763L1328.71 78.7633ZM1257.32 78.4138L1257.32 76.9138L1255.6 76.9053L1255.83 78.6166L1257.32 78.4138ZM1263.92 110.124L1262.48 110.535L1263.92 110.124ZM1289.92 166.334L1291.15 165.479L1289.92 166.334ZM1329.06 203.956L1329.82 202.668L1329.06 203.956ZM575.54 73.076L574.385 72.1186L572.361 74.5605L575.532 74.576L575.54 73.076ZM1212.86 76.1961L1212.85 77.6961L1214.67 77.705L1214.33 75.9129L1212.86 76.1961ZM596.012 43.713L596.019 42.213L595.154 42.2088L594.717 42.9552L596.012 43.713ZM1208.51 46.6542L1210 46.5008L1209.87 45.1607L1208.52 45.1542L1208.51 46.6542ZM1217.95 76.221L1216.48 76.5086L1216.72 77.715L1217.95 77.721L1217.95 76.221ZM1213.54 46.6783L1213.55 45.1784L1211.88 45.1704L1212.05 46.8341L1213.54 46.6783ZM1255.03 76.4026L1255.03 77.9026L1256.74 77.9109L1256.52 76.2141L1255.03 76.4026ZM1253.1 46.8683L1254.6 46.8607L1254.59 45.3755L1253.11 45.3683L1253.1 46.8683ZM1225.47 106.755L1224.03 107.185L1225.47 106.755ZM1218.35 78.223L1218.36 76.723L1216.52 76.7139L1216.88 78.5196L1218.35 78.223ZM1266 190.129L1267.21 189.245L1266 190.129ZM1326.92 245.884L1327.66 244.58L1327.66 244.58L1326.92 245.884ZM1350.81 256.412L1350.3 257.824L1352.3 258.542L1352.31 256.418L1350.81 256.412ZM1350.97 215.485L1352.47 215.491L1352.48 214.398L1351.44 214.059L1350.97 215.485ZM1328.03 205.674L1327.26 206.962L1328.03 205.674ZM1288.28 167.476L1289.51 166.62L1288.28 167.476ZM1262 110.672L1263.44 110.261L1262 110.672ZM1255.3 78.4039L1256.78 78.2028L1256.61 76.9103L1255.3 76.9039L1255.3 78.4039ZM1373.42 263.457L1373.81 262.009L1373.81 262.009L1373.42 263.457ZM1352.8 257.119L1351.3 257.113L1351.3 258.183L1352.31 258.535L1352.8 257.119ZM1386.4 266.649L1386.07 268.113L1387.89 268.516L1387.9 266.659L1386.4 266.649ZM1386.7 223.086L1388.2 223.097L1388.21 221.674L1386.79 221.589L1386.7 223.086ZM1358.37 217.734L1357.97 219.177L1357.97 219.177L1358.37 217.734ZM1352.97 216.123L1353.42 214.692L1351.48 214.083L1351.47 216.117L1352.97 216.123ZM1258.58 1754.19L1257.09 1754.33L1258.58 1754.19ZM1292.52 1847.21L1292.98 1848.64L1294.84 1848.04L1293.78 1846.4L1292.52 1847.21ZM1275.4 1665.08L1276.73 1665.76L1275.4 1665.08ZM1340.36 1593.42L1341.21 1594.66L1342.95 1593.47L1341.25 1592.22L1340.36 1593.42ZM1338.75 1592.23L1339.64 1591.03L1338.79 1590.39L1337.91 1590.99L1338.75 1592.23ZM1273.23 1664.5L1274.57 1665.18L1273.23 1664.5ZM1256.28 1754.28L1257.77 1754.14L1256.28 1754.28ZM1290.43 1847.88L1289.17 1848.69L1289.79 1849.66L1290.88 1849.31L1290.43 1847.88ZM357.212 145.335L357.916 144.011L356.186 143.091L355.75 145.001L357.212 145.335ZM452.775 171.279L452.761 172.779L452.775 171.279ZM356.723 147.476L355.261 147.142L355.005 148.261L356.019 148.8L356.723 147.476ZM452.882 173.578L452.868 175.078L452.882 173.578ZM540.902 149.09L540.111 147.815L540.902 149.09ZM607.363 77.6863L608.669 78.425L609.194 77.4962L608.489 76.6951L607.363 77.6863ZM606.042 76.1852L607.168 75.194L605.774 73.6118L604.736 75.4465L606.042 76.1852ZM540.145 146.979L540.936 148.253L540.145 146.979ZM1402.92 1932.6C1370.83 1907.13 1344.88 1878.25 1326.54 1847.63L1323.96 1849.17C1342.52 1880.14 1368.72 1909.29 1401.05 1934.95L1402.92 1932.6ZM1401.1 1936.11L1402.79 1935.04L1401.18 1932.51L1399.49 1933.58L1401.1 1936.11ZM1321.85 1849.77C1340.51 1880.92 1366.86 1910.22 1399.37 1936.02L1401.23 1933.67C1368.97 1908.07 1342.87 1879.03 1324.42 1848.22L1321.85 1849.77ZM1290.67 1754.38C1292.57 1786.2 1303.19 1818.61 1321.85 1849.77L1324.42 1848.22C1305.98 1817.42 1295.54 1785.48 1293.66 1754.2L1290.67 1754.38ZM1310.81 1664.41C1295.6 1691.98 1288.76 1722.56 1290.67 1754.38L1293.66 1754.2C1291.78 1722.94 1298.5 1692.92 1313.44 1665.86L1310.81 1664.41ZM1344.31 1621.14C1330.71 1634.24 1319.46 1648.75 1310.81 1664.41L1313.44 1665.86C1321.93 1650.48 1332.99 1636.21 1346.39 1623.3L1344.31 1621.14ZM1349.29 261.705L1343.85 1622.22L1346.85 1622.23L1352.29 261.717L1349.29 261.705ZM1323.71 251.535C1330.87 255.604 1340.16 259.567 1350.29 263.126L1351.28 260.296C1341.24 256.769 1332.14 252.875 1325.19 248.926L1323.71 251.535ZM1260.75 193.961C1278.65 218.484 1300.03 238.073 1323.71 251.535L1325.19 248.926C1301.92 235.699 1280.85 216.415 1263.17 192.192L1260.75 193.961ZM1219.24 108.618C1228.76 140.432 1242.85 169.438 1260.75 193.961L1263.17 192.192C1245.49 167.97 1231.55 139.278 1222.12 107.758L1219.24 108.618ZM1211.78 78.4902C1213.8 88.7069 1216.29 98.7687 1219.24 108.618L1222.12 107.758C1219.2 98.0013 1216.73 88.0317 1214.72 77.9059L1211.78 78.4902ZM573.86 76.5678L1213.24 79.698L1213.25 76.6981L573.874 73.5678L573.86 76.5678ZM532.185 113.273C547.934 103.49 562.296 90.9807 575.009 76.0399L572.724 74.0957C560.199 88.8159 546.07 101.116 530.602 110.725L532.185 113.273ZM443.372 138.027C475.253 138.295 505.439 129.888 532.185 113.273L530.602 110.725C504.345 127.036 474.718 135.291 443.397 135.027L443.372 138.027ZM346.51 111.793C378.584 128.825 411.497 137.758 443.372 138.027L443.397 135.027C412.07 134.763 379.626 125.982 347.917 109.144L346.51 111.793ZM256.376 38.8216C283.816 69.9581 314.438 94.7621 346.51 111.793L347.917 109.144C316.207 92.3046 285.862 67.7426 258.627 36.8382L256.376 38.8216ZM257.18 35.3508L256.195 37.0918L258.807 38.568L259.791 36.827L257.18 35.3508ZM348.406 107.002C316.878 90.2604 286.7 65.8352 259.611 35.0972L257.36 37.0806C284.653 68.0507 315.109 92.7179 346.999 109.652L348.406 107.002ZM443.289 132.728C412.174 132.466 379.933 123.744 348.406 107.002L346.999 109.652C378.89 126.587 411.602 135.462 443.264 135.728L443.289 132.728ZM529.844 108.614C503.801 124.792 474.397 132.99 443.289 132.728L443.264 135.728C474.932 135.995 504.895 127.644 531.427 111.162L529.844 108.614ZM570.083 74.0694C558.048 87.8785 544.558 99.4726 529.844 108.614L531.427 111.162C546.411 101.854 560.126 90.0603 572.344 76.0403L570.083 74.0694ZM350.717 75.4754L571.206 76.5548L571.221 73.5549L350.731 72.4755L350.717 75.4754ZM349.224 71.9757L349.224 73.9758L352.224 73.9752L352.224 71.9751L349.224 71.9757ZM572.933 71.5632L350.731 70.4754L350.716 73.4754L572.919 74.5632L572.933 71.5632ZM592.521 42.935C586.233 53.4942 579.3 63.2337 571.782 72.0927L574.07 74.0337C581.701 65.0415 588.729 55.1652 595.098 44.4698L592.521 42.935ZM345.102 44.0082L593.802 45.2024L593.817 42.2024L345.117 41.0082L345.102 44.0082ZM343.607 40.5103L343.61 42.5102L346.61 42.5062L346.607 40.5063L343.607 40.5103ZM594.991 40.2081L345.114 39.0083L345.1 42.0083L594.976 43.2081L594.991 40.2081ZM594.183 40.0979C594.018 40.3837 593.853 40.6688 593.687 40.9533L596.28 42.4629C596.448 42.1747 596.615 41.886 596.782 41.597L594.183 40.0979ZM594.542 39.4743C594.422 39.6825 594.303 39.8906 594.183 40.098L596.782 41.5968C596.903 41.3865 597.024 41.176 597.145 40.9653L594.542 39.4743ZM594.868 38.9025C594.759 39.0936 594.651 39.2841 594.542 39.4744L597.145 40.9652C597.255 40.7722 597.366 40.579 597.476 40.3856L594.868 38.9025ZM595.195 38.3264C595.086 38.5187 594.977 38.7107 594.868 38.9024L597.476 40.3857C597.586 40.1918 597.696 39.9976 597.806 39.8032L595.195 38.3264ZM598.948 39.5734L597.626 38.073L595.375 40.0566L596.697 41.5571L598.948 39.5734ZM598.468 42.4638C598.689 42.0782 598.909 41.6912 599.128 41.3034L596.517 39.8271C596.3 40.2102 596.083 40.5922 595.865 40.9735L598.468 42.4638ZM1208.32 43.1532L597.174 40.2187L597.159 43.2187L1208.31 46.1532L1208.32 43.1532ZM1205.19 8.44325C1205.11 20.6267 1205.65 32.7738 1206.82 44.798L1209.81 44.5085C1208.65 32.5877 1208.11 20.5443 1208.19 8.46415L1205.19 8.44325ZM1211.7 6.98856L1206.7 6.95374L1206.68 9.95366L1211.68 9.98848L1211.7 6.98856ZM1214.83 44.5304C1213.66 32.619 1213.11 20.5789 1213.19 8.49897L1210.19 8.47807C1210.11 20.663 1210.66 32.8081 1211.85 44.8243L1214.83 44.5304ZM1253.11 43.3684L1213.35 43.1774L1213.33 46.1774L1253.09 46.3683L1253.11 43.3684ZM1251.61 43.8789C1251.6 44.2073 1251.6 44.5355 1251.6 44.8639L1254.6 44.8728C1254.6 44.5486 1254.6 44.2243 1254.61 43.8998L1251.61 43.8789ZM1255.12 42.4033L1253.12 42.3894L1253.09 45.3893L1255.09 45.4032L1255.12 42.4033ZM1256.6 44.8825C1256.6 44.5596 1256.6 44.2367 1256.61 43.9137L1253.61 43.8928C1253.6 44.2197 1253.6 44.5468 1253.6 44.8735L1256.6 44.8825ZM1387.95 44.0159L1255.11 43.378L1255.09 46.378L1387.93 47.0159L1387.95 44.0159ZM1386.81 -8.27717L1386.44 45.5055L1389.44 45.5264L1389.81 -8.25628L1386.81 -8.27717ZM1390.32 -9.75276L1388.32 -9.76669L1388.3 -6.76676L1390.3 -6.75283L1390.32 -9.75276ZM1391.44 45.5359L1391.81 -8.24235L1388.81 -8.26324L1388.44 45.515L1391.44 45.5359ZM1460.18 44.3627L1389.95 44.0255L1389.93 47.0254L1460.17 47.3627L1460.18 44.3627ZM1461.68 47.8607L1461.67 45.8607L1458.67 45.8647L1458.68 47.8647L1461.68 47.8607ZM1389.92 49.0253L1460.17 49.3627L1460.18 46.3627L1389.93 46.0253L1389.92 49.0253ZM1390.22 221.184L1391.43 47.5357L1388.43 47.5148L1387.22 221.163L1390.22 221.184ZM1389.73 219.691C1389.41 219.689 1389.09 219.683 1388.76 219.674L1388.68 222.673C1389.02 222.682 1389.37 222.688 1389.71 222.691L1389.73 219.691ZM1391.2 223.201L1391.22 221.201L1388.22 221.18L1388.2 223.18L1391.2 223.201ZM1388.66 224.673C1389.01 224.682 1389.35 224.688 1389.69 224.691L1389.71 221.691C1389.39 221.689 1389.07 221.683 1388.74 221.674L1388.66 224.673ZM1389.9 267.096L1390.2 223.184L1387.2 223.163L1386.9 267.075L1389.9 267.096ZM1421.38 269.955C1412.73 269.895 1401.14 268.29 1388.71 265.619L1388.08 268.552C1400.61 271.244 1412.42 272.893 1421.36 272.955L1421.38 269.955ZM1422.83 276.465L1422.87 271.466L1419.87 271.445L1419.83 276.445L1422.83 276.465ZM1388.05 273.658C1400.43 276.27 1412.2 277.891 1421.32 277.955L1421.34 274.955C1412.5 274.893 1400.95 273.315 1388.67 270.722L1388.05 273.658ZM1380.64 1595.71L1389.86 272.201L1386.86 272.18L1377.64 1595.68L1380.64 1595.71ZM1379.24 1593.85C1378.94 1594.05 1378.64 1594.24 1378.33 1594.43L1379.95 1596.96C1380.25 1596.77 1380.55 1596.58 1380.85 1596.39L1379.24 1593.85ZM1382.54 1595.19L1380.98 1593.94L1379.11 1596.29L1380.68 1597.54L1382.54 1595.19ZM1379.95 1599.22C1380.77 1598.68 1381.59 1598.15 1382.42 1597.63L1380.81 1595.1C1379.97 1595.63 1379.14 1596.17 1378.31 1596.71L1379.95 1599.22ZM1379.04 1825.95L1380.63 1597.97L1377.63 1597.95L1376.04 1825.93L1379.04 1825.95ZM1375.53 1827.43L1377.53 1827.44L1377.55 1824.44L1375.55 1824.43L1375.53 1827.43ZM1375.62 1599.28L1374.04 1825.92L1377.04 1825.94L1378.62 1599.3L1375.62 1599.28ZM1348.39 1624.19C1357.24 1615.68 1367.12 1607.77 1377.95 1600.54L1376.29 1598.04C1365.31 1605.37 1355.29 1613.39 1346.31 1622.03L1348.39 1624.19ZM1348.03 1826.89L1348.85 1623.11L1345.85 1623.1L1345.03 1826.88L1348.03 1826.89ZM1344.59 1828.46L1346.59 1828.39L1346.48 1825.39L1344.48 1825.46L1344.59 1828.46ZM1343.84 1625.06L1343.03 1826.95L1346.03 1826.97L1346.84 1625.07L1343.84 1625.06ZM1315.59 1666.51C1323.61 1651.97 1333.95 1638.44 1346.39 1626.13L1344.28 1624C1331.65 1636.5 1321.13 1650.26 1312.96 1665.06L1315.59 1666.51ZM1295.96 1754.19C1294.1 1723.14 1300.77 1693.35 1315.59 1666.51L1312.96 1665.06C1297.87 1692.41 1291.07 1722.76 1292.97 1754.37L1295.96 1754.19ZM1326.54 1847.63C1308.19 1817 1297.82 1785.25 1295.96 1754.19L1292.97 1754.37C1294.86 1785.98 1305.41 1818.19 1323.96 1849.17L1326.54 1847.63ZM1376.31 1595.74C1365.37 1602.92 1355.35 1610.77 1346.33 1619.22L1348.38 1621.41C1357.27 1613.08 1367.15 1605.34 1377.96 1598.25L1376.31 1595.74ZM1384.86 271.751L1375.63 1596.99L1378.63 1597.01L1387.86 271.772L1384.86 271.751ZM1371.73 269.734C1376.51 271.02 1381.32 272.193 1386.04 273.227L1386.68 270.296C1382 269.273 1377.24 268.11 1372.51 266.837L1371.73 269.734ZM1352.3 263.822C1358.57 265.969 1365.14 267.963 1371.73 269.734L1372.51 266.837C1365.98 265.082 1359.47 263.108 1353.27 260.984L1352.3 263.822ZM1348.86 1620.32L1354.28 262.409L1351.28 262.397L1345.86 1620.31L1348.86 1620.32ZM1349.81 129.96L1349.48 213.376L1352.48 213.388L1352.81 129.972L1349.81 129.96ZM1353.26 128.394L1351.26 128.467L1351.37 131.465L1353.37 131.392L1353.26 128.394ZM1354.48 214.035L1354.81 129.899L1351.81 129.887L1351.48 214.023L1354.48 214.035ZM1359.32 214.365C1357.35 213.807 1355.37 213.217 1353.43 212.599L1352.52 215.458C1354.5 216.086 1356.5 216.686 1358.51 217.253L1359.32 214.365ZM1386.81 219.586C1379.28 219.124 1369.29 217.178 1359.32 214.365L1358.51 217.253C1368.6 220.099 1378.81 222.101 1386.62 222.581L1386.81 219.586ZM1386.43 47.5053L1385.22 221.073L1388.22 221.094L1389.43 47.5262L1386.43 47.5053ZM1255.1 48.3779L1387.92 49.0157L1387.93 46.0157L1255.11 45.378L1255.1 48.3779ZM1258.54 76.2222C1257.3 66.5603 1256.65 56.7404 1256.6 46.8702L1253.6 46.8857C1253.65 56.877 1254.31 66.8187 1255.56 76.6026L1258.54 76.2222ZM1328.72 75.2633L1257.06 74.9124L1257.04 77.9124L1328.71 78.2632L1328.72 75.2633ZM1330.21 78.763L1330.21 76.763L1327.21 76.7636L1327.21 78.7636L1330.21 78.763ZM1257.31 79.9138L1328.71 80.2633L1328.72 77.2633L1257.32 76.9138L1257.31 79.9138ZM1265.36 109.714C1262.46 99.5198 1260.27 88.9691 1258.8 78.211L1255.83 78.6166C1257.32 89.5106 1259.54 100.2 1262.48 110.535L1265.36 109.714ZM1291.15 165.479C1280.07 149.529 1271.3 130.584 1265.36 109.714L1262.48 110.535C1268.5 131.688 1277.4 150.94 1288.69 167.19L1291.15 165.479ZM1329.82 202.668C1315.38 194.048 1302.23 181.429 1291.15 165.479L1288.69 167.19C1299.98 183.44 1313.43 196.375 1328.29 205.244L1329.82 202.668ZM1351.45 211.958C1343.01 209.171 1335.27 205.919 1329.82 202.668L1328.29 205.244C1334 208.653 1341.97 211.986 1350.51 214.807L1351.45 211.958ZM575.532 74.576L1212.85 77.6961L1212.86 74.6961L575.547 71.576L575.532 74.576ZM594.717 42.9552C588.55 53.491 581.753 63.2314 574.385 72.1186L576.695 74.0334C584.172 65.0148 591.061 55.1401 597.306 44.4708L594.717 42.9552ZM1208.52 45.1542L596.019 42.213L596.005 45.213L1208.51 48.1542L1208.52 45.1542ZM1214.33 75.9129C1212.47 66.2308 1211.02 56.4101 1210 46.5008L1207.02 46.8076C1208.05 56.8029 1209.5 66.7102 1211.38 76.4793L1214.33 75.9129ZM1219.43 75.9334C1217.54 66.2573 1216.07 56.4365 1215.03 46.5226L1212.05 46.8341C1213.09 56.8355 1214.57 66.7442 1216.48 76.5086L1219.43 75.9334ZM1255.04 74.9026L1217.96 74.721L1217.95 77.721L1255.03 77.9026L1255.04 74.9026ZM1251.6 46.8759C1251.65 56.8638 1252.31 66.8044 1253.55 76.5911L1256.52 76.2141C1255.3 66.5481 1254.65 56.7284 1254.6 46.8607L1251.6 46.8759ZM1213.53 48.1783L1253.1 48.3683L1253.11 45.3683L1213.55 45.1784L1213.53 48.1783ZM1226.91 106.325C1224.13 97.0405 1221.76 87.5574 1219.82 77.9263L1216.88 78.5196C1218.84 88.2387 1221.23 97.8109 1224.03 107.185L1226.91 106.325ZM1267.21 189.245C1249.9 165.524 1236.19 137.354 1226.91 106.325L1224.03 107.185C1233.4 138.509 1247.26 166.992 1264.79 191.013L1267.21 189.245ZM1327.66 244.58C1305.08 231.743 1284.52 212.965 1267.21 189.245L1264.79 191.013C1282.32 215.035 1303.19 234.117 1326.18 247.188L1327.66 244.58ZM1351.32 255.001C1342.14 251.707 1333.93 248.141 1327.66 244.58L1326.18 247.188C1332.65 250.865 1341.04 254.498 1350.3 257.824L1351.32 255.001ZM1349.47 215.479L1349.31 256.406L1352.31 256.418L1352.47 215.491L1349.47 215.479ZM1327.26 206.962C1333.27 210.55 1341.64 214.018 1350.51 216.911L1351.44 214.059C1342.67 211.199 1334.54 207.814 1328.8 204.386L1327.26 206.962ZM1287.04 168.331C1298.47 184.781 1312.13 197.926 1327.26 206.962L1328.8 204.386C1314.08 195.599 1300.73 182.77 1289.51 166.62L1287.04 168.331ZM1260.55 111.082C1266.63 132.423 1275.62 151.881 1287.04 168.331L1289.51 166.62C1278.29 150.47 1269.43 131.32 1263.44 110.261L1260.55 111.082ZM1253.81 78.6049C1255.31 89.6883 1257.56 100.566 1260.55 111.082L1263.44 110.261C1260.49 99.8865 1258.26 89.149 1256.78 78.2028L1253.81 78.6049ZM1218.34 79.723L1255.29 79.9038L1255.3 76.9039L1218.36 76.723L1218.34 79.723ZM1373.81 262.009C1366.79 260.121 1359.83 257.988 1353.3 255.703L1352.31 258.535C1358.92 260.846 1365.94 263.001 1373.03 264.906L1373.81 262.009ZM1386.72 265.185C1382.47 264.238 1378.13 263.173 1373.81 262.009L1373.03 264.906C1377.4 266.081 1381.77 267.157 1386.07 268.113L1386.72 265.185ZM1385.2 223.076L1384.9 266.638L1387.9 266.659L1388.2 223.097L1385.2 223.076ZM1357.97 219.177C1368.15 222.053 1378.57 224.102 1386.61 224.584L1386.79 221.589C1379.04 221.125 1368.85 219.132 1358.78 216.29L1357.97 219.177ZM1352.52 217.555C1354.32 218.121 1356.14 218.663 1357.97 219.177L1358.78 216.29C1356.98 215.784 1355.19 215.25 1353.42 214.692L1352.52 217.555ZM1354.3 257.125L1354.47 216.129L1351.47 216.117L1351.3 257.113L1354.3 257.125ZM1257.09 1754.33C1260.05 1785.85 1271.67 1817.69 1291.26 1848.03L1293.78 1846.4C1274.42 1816.41 1262.98 1785.03 1260.07 1754.05L1257.09 1754.33ZM1274.06 1664.4C1259.9 1692.23 1254.13 1722.8 1257.09 1754.33L1260.07 1754.05C1257.16 1723.08 1262.83 1693.08 1276.73 1665.76L1274.06 1664.4ZM1339.51 1592.18C1310.48 1612.03 1288.22 1636.56 1274.06 1664.4L1276.73 1665.76C1290.64 1638.43 1312.53 1614.26 1341.21 1594.66L1339.51 1592.18ZM1337.86 1593.44L1339.47 1594.63L1341.25 1592.22L1339.64 1591.03L1337.86 1593.44ZM1274.57 1665.18C1288.59 1637.62 1310.67 1613.25 1339.6 1593.47L1337.91 1590.99C1308.61 1611.02 1286.17 1635.76 1271.89 1663.82L1274.57 1665.18ZM1257.77 1754.14C1254.85 1722.95 1260.55 1692.73 1274.57 1665.18L1271.89 1663.82C1257.61 1691.88 1251.81 1722.67 1254.79 1754.42L1257.77 1754.14ZM1291.69 1847.07C1272.21 1816.91 1260.7 1785.33 1257.77 1754.14L1254.79 1754.42C1257.77 1786.15 1269.47 1818.19 1289.17 1848.69L1291.69 1847.07ZM1292.06 1845.78L1289.97 1846.45L1290.88 1849.31L1292.98 1848.64L1292.06 1845.78ZM356.508 146.66C388.392 163.609 421.1 172.498 452.761 172.779L452.788 169.78C421.673 169.503 389.436 160.766 357.916 144.011L356.508 146.66ZM358.185 147.81L358.675 145.67L355.75 145.001L355.261 147.142L358.185 147.81ZM452.895 172.078C421.568 171.8 389.128 163.004 357.427 146.151L356.019 148.8C388.084 165.847 420.994 174.795 452.868 175.078L452.895 172.078ZM540.111 147.815C513.847 164.115 484.216 172.356 452.895 172.078L452.868 175.078C484.749 175.361 514.939 166.968 541.693 150.364L540.111 147.815ZM606.058 76.9476C588.799 107.448 566.381 131.513 540.111 147.815L541.693 150.364C568.443 133.764 591.195 109.305 608.669 78.425L606.058 76.9476ZM604.916 77.1764L606.238 78.6775L608.489 76.6951L607.168 75.194L604.916 77.1764ZM540.936 148.253C567.47 131.786 590.027 107.533 607.347 76.924L604.736 75.4465C587.631 105.675 565.407 129.535 539.354 145.704L540.936 148.253ZM452.761 172.779C484.43 173.06 514.396 164.723 540.936 148.253L539.354 145.704C513.304 161.87 483.896 170.055 452.788 169.78L452.761 172.779Z" fill="url(#paint0_linear_307_298)"/>
</g>
<rect x="1422.87" y="1994.51" width="1408" height="1984" transform="rotate(-179.601 1422.87 1994.51)" stroke="black"/>
<g clip-path="url(#clip1_307_298)">
<path d="M23.6828 61.6896L22.8721 60.4275L21.0984 61.5668L22.7561 62.8691L23.6828 61.6896ZM100.841 146.688L99.5581 147.465L99.5581 147.465L100.841 146.688ZM25.3656 60.6087L26.2922 59.4292L25.453 58.7698L24.5549 59.3466L25.3656 60.6087ZM102.951 146.079L101.668 146.856L101.668 146.856L102.951 146.079ZM134.395 240.626L135.892 240.528L135.892 240.528L134.395 240.626ZM114.873 329.879L116.19 330.598L116.19 330.598L114.873 329.879ZM81.8621 372.959L80.8162 371.884L80.3615 372.326L80.3621 372.96L81.8621 372.959ZM83.176 1739.49L81.676 1739.49L81.6771 1740.56L82.6858 1740.9L83.176 1739.49ZM109.551 1750.83L110.286 1749.52L110.286 1749.52L109.551 1750.83ZM172.323 1807.67L171.116 1808.56L171.116 1808.56L172.323 1807.67ZM214.026 1892.36L212.591 1892.79L212.591 1892.79L214.026 1892.36ZM221.607 1922.31L220.138 1922.61L220.382 1923.81L221.608 1923.81L221.607 1922.31ZM887.025 1922.28L887.025 1923.78L887.723 1923.78L888.172 1923.25L887.025 1922.28ZM929.283 1885.18L928.485 1883.91L928.485 1883.91L929.283 1885.18ZM1017.17 1860.22L1017.18 1858.72L1017.18 1858.72L1017.17 1860.22ZM1113.47 1885.8L1114.17 1884.47L1114.17 1884.47L1113.47 1885.8ZM1203.54 1957.99L1204.85 1958.72L1205.37 1957.79L1204.66 1956.99L1203.54 1957.99ZM1202.56 1959.74L1201.44 1960.73L1202.85 1962.31L1203.87 1960.47L1202.56 1959.74ZM1112.99 1887.94L1112.29 1889.27L1112.29 1889.27L1112.99 1887.94ZM1017.29 1862.51L1017.28 1864.01L1017.29 1862.51ZM930.052 1887.29L930.85 1888.56L930.85 1888.56L930.052 1887.29ZM889.679 1922.28L888.544 1921.3L886.403 1923.78L889.679 1923.78L889.679 1922.28ZM1110.14 1922.28L1111.64 1922.27L1111.63 1920.78L1110.14 1920.78L1110.14 1922.28ZM1110.15 1924.28L1110.15 1925.78L1111.66 1925.78L1111.65 1924.27L1110.15 1924.28ZM887.976 1924.28L887.976 1922.78L887.277 1922.78L886.828 1923.32L887.976 1924.28ZM867.214 1953.77L865.922 1953.01L864.59 1955.27L867.214 1955.27L867.214 1953.77ZM1115.91 1953.75L1117.41 1953.74L1117.4 1952.25L1115.91 1952.25L1115.91 1953.75ZM1115.92 1955.75L1115.92 1957.25L1117.43 1957.25L1117.42 1955.74L1115.92 1955.75ZM866.05 1955.77L866.049 1954.27L865.182 1954.27L864.75 1955.03L866.05 1955.77ZM865.589 1956.58L864.286 1955.83L864.286 1955.83L865.589 1956.58ZM865.356 1956.99L864.052 1956.25L864.051 1956.25L865.356 1956.99ZM864.539 1958.44L863.419 1959.43L864.82 1961.01L865.849 1959.17L864.539 1958.44ZM863.209 1956.94L861.901 1956.21L861.379 1957.14L862.089 1957.94L863.209 1956.94ZM863.424 1956.56L862.115 1955.83L862.115 1955.83L863.424 1956.56ZM863.867 1955.77L865.172 1956.51L866.44 1954.27L863.867 1954.27L863.867 1955.77ZM226.708 1955.84L226.708 1954.34L225.047 1954.34L225.216 1955.99L226.708 1955.84ZM228.506 1992.02L228.503 1993.52L230.003 1993.52L230.006 1992.02L228.506 1992.02ZM223.506 1992.01L222.006 1992.01L222.003 1993.51L223.503 1993.51L223.506 1992.01ZM221.682 1955.84L223.174 1955.69L223.034 1954.34L221.681 1954.34L221.682 1955.84ZM181.919 1955.85L181.919 1954.35L180.417 1954.35L180.419 1955.85L181.919 1955.85ZM181.919 1956.29L183.419 1956.29L183.419 1956.29L181.919 1956.29ZM181.919 1956.82L181.916 1958.32L183.417 1958.32L183.419 1956.82L181.919 1956.82ZM179.919 1956.81L178.419 1956.81L178.416 1958.31L179.916 1958.31L179.919 1956.81ZM179.919 1955.85L181.419 1955.84L181.416 1954.35L179.919 1954.35L179.919 1955.85ZM47.0784 1955.86L47.0782 1954.36L45.5814 1954.36L45.5784 1955.86L47.0784 1955.86ZM46.9704 2009.64L46.9674 2011.14L48.4674 2011.14L48.4704 2009.64L46.9704 2009.64ZM44.9704 2009.64L43.4704 2009.63L43.4674 2011.13L44.9674 2011.14L44.9704 2009.64ZM45.0784 1955.86L46.5784 1955.86L46.5814 1954.36L45.0782 1954.36L45.0784 1955.86ZM-25.1584 1955.87L-26.6583 1955.88L-26.6487 1957.37L-25.1582 1957.37L-25.1584 1955.87ZM-25.1714 1953.87L-25.1715 1952.37L-26.6811 1952.37L-26.6713 1953.88L-25.1714 1953.87ZM45.0824 1953.86L45.0825 1955.36L46.5794 1955.36L46.5824 1953.86L45.0824 1953.86ZM45.4309 1780.21L46.9309 1780.21L46.9339 1778.74L45.4642 1778.71L45.4309 1780.21ZM44.4311 1780.19L42.9311 1780.19L42.9281 1781.69L44.4281 1781.69L44.4311 1780.19ZM44.4351 1778.19L44.4381 1776.69L42.9381 1776.69L42.9351 1778.19L44.4351 1778.19ZM45.4349 1778.21L45.4028 1779.7L46.9319 1779.74L46.9349 1778.21L45.4349 1778.21ZM45.5231 1734.29L47.0231 1734.3L47.0255 1733.07L45.831 1732.82L45.5231 1734.29ZM12.5313 1730.09L11.0313 1730.08L11.0283 1731.58L12.5283 1731.59L12.5313 1730.09ZM12.5413 1725.09L12.5444 1723.59L11.0444 1723.58L11.0413 1725.08L12.5413 1725.09ZM45.5333 1729.19L45.2308 1730.66L47.0296 1731.03L47.0333 1729.19L45.5333 1729.19ZM48.2019 399.653L49.7019 399.656L49.7075 396.889L47.3857 398.394L48.2019 399.653ZM47.3023 400.234L46.3757 401.413L47.2149 402.072L48.113 401.496L47.3023 400.234ZM45.7296 398.998L44.919 397.736L43.1452 398.875L44.803 400.178L45.7296 398.998ZM48.2065 397.385L49.0327 398.637L49.7048 398.194L49.7065 397.388L48.2065 397.385ZM48.6641 169.403L48.6671 167.903L47.1671 167.9L47.1641 169.4L48.6641 169.403ZM50.6641 169.407L52.164 169.41L52.1671 167.91L50.6671 167.907L50.6641 169.407ZM50.2091 396.049L48.7091 396.046L48.7035 398.874L51.0481 397.292L50.2091 396.049ZM79.8629 372.083L80.9078 373.159L81.3635 372.717L81.3629 372.081L79.8629 372.083ZM79.667 168.303L79.6047 166.805L78.1656 166.864L78.167 168.305L79.667 168.303ZM81.6653 168.22L83.1653 168.219L83.1638 166.657L81.603 166.722L81.6653 168.22ZM81.8594 370.117L80.3594 370.118L80.3629 373.732L82.9194 371.178L81.8594 370.117ZM112.723 329.241L111.406 328.523L111.406 328.523L112.723 329.241ZM132.094 240.648L133.591 240.551L133.591 240.551L132.094 240.648ZM50.2045 398.34L49.3758 397.09L48.7062 397.533L48.7046 398.337L50.2045 398.34ZM79.8656 374.875L81.3656 374.873L81.3623 371.393L78.8346 373.785L79.8656 374.875ZM47.5325 1729.61L46.0325 1729.6L46.0301 1730.82L47.2195 1731.07L47.5325 1729.61ZM61.7959 1733.01L61.4135 1734.46L61.4136 1734.46L61.7959 1733.01ZM81.177 1738.8L80.6981 1740.23L82.679 1740.89L82.677 1738.8L81.177 1738.8ZM83.3027 1871.23L83.365 1872.73L84.8041 1872.67L84.8027 1871.23L83.3027 1871.23ZM83.2225 1787.82L83.686 1786.39L81.7205 1785.75L81.7225 1787.82L83.2225 1787.82ZM81.3044 1871.31L79.8044 1871.31L79.8059 1872.87L81.3667 1872.81L81.3044 1871.31ZM81.2235 1787.18L82.7235 1787.18L82.7225 1786.08L81.6707 1785.75L81.2235 1787.18ZM75.2572 1785.42L75.6574 1783.98L75.6574 1783.98L75.2572 1785.42ZM47.4308 1780.29L47.5153 1778.79L45.934 1778.7L45.9308 1780.28L47.4308 1780.29ZM47.0824 1953.86L45.5824 1953.86L45.5794 1955.36L47.0825 1955.36L47.0824 1953.86ZM179.907 1953.85L179.907 1955.35L181.422 1955.35L181.407 1953.83L179.907 1953.85ZM177.812 1924.31L179.299 1924.12L179.126 1922.81L177.812 1922.81L177.812 1924.31ZM106.148 1924.32L104.648 1924.32L104.656 1925.82L106.148 1925.82L106.148 1924.32ZM106.138 1922.32L106.138 1920.82L104.63 1920.82L104.638 1922.32L106.138 1922.32ZM177.538 1922.31L177.538 1923.81L179.265 1923.81L179.023 1922.1L177.538 1922.31ZM170.775 1890.63L172.215 1890.22L172.215 1890.22L170.775 1890.63ZM144.498 1834.55L143.27 1835.42L143.27 1835.42L144.498 1834.55ZM105.176 1797.13L104.413 1798.42L104.413 1798.42L105.176 1797.13ZM885.361 1924.28L886.521 1925.24L888.534 1922.78L885.361 1922.78L885.361 1924.28ZM222.009 1924.31L222.008 1922.81L220.184 1922.81L220.537 1924.6L222.009 1924.31ZM865.012 1953.77L865.012 1955.27L865.877 1955.27L866.31 1954.53L865.012 1953.77ZM226.498 1953.84L225.007 1954L225.151 1955.34L226.498 1955.34L226.498 1953.84ZM216.911 1924.31L218.381 1924.02L218.14 1922.81L216.911 1922.81L216.911 1924.31ZM221.469 1953.84L221.469 1955.34L223.142 1955.34L222.96 1953.68L221.469 1953.84ZM179.829 1924.31L179.829 1922.81L178.119 1922.81L178.342 1924.51L179.829 1924.31ZM181.907 1953.85L180.407 1953.86L180.422 1955.35L181.907 1955.35L181.907 1953.85ZM209.243 1893.81L207.808 1894.25L207.808 1894.25L209.243 1893.81ZM216.503 1922.31L216.503 1923.81L218.345 1923.81L217.972 1922.01L216.503 1922.31ZM168.299 1810.64L167.092 1811.53L167.092 1811.53L168.299 1810.64ZM107.102 1755.19L106.367 1756.5L106.367 1756.5L107.102 1755.19ZM83.1811 1744.79L83.6811 1743.37L81.6791 1742.66L81.6811 1744.79L83.1811 1744.79ZM83.2205 1785.71L81.7205 1785.71L81.7215 1786.81L82.7621 1787.14L83.2205 1785.71ZM106.193 1795.4L106.955 1794.11L106.955 1794.11L106.193 1795.4ZM146.135 1833.4L147.363 1832.54L147.363 1832.54L146.135 1833.4ZM172.696 1890.08L171.255 1890.5L171.255 1890.5L172.696 1890.08ZM179.557 1922.31L178.072 1922.52L178.253 1923.81L179.558 1923.81L179.557 1922.31ZM60.5214 1737.85L60.139 1739.3L60.139 1739.3L60.5214 1737.85ZM81.1821 1744.09L82.6821 1744.09L82.6811 1743.02L81.6702 1742.67L81.1821 1744.09ZM47.5222 1734.72L47.8406 1733.25L46.026 1732.86L46.0222 1734.72L47.5222 1734.72ZM47.4348 1778.28L45.9348 1778.28L45.9319 1779.7L47.3526 1779.78L47.4348 1778.28ZM75.7908 1783.49L75.3906 1784.94L75.3907 1784.94L75.7908 1783.49ZM81.2215 1785.08L80.7792 1786.52L82.7235 1787.12L82.7215 1785.08L81.2215 1785.08ZM167.979 240.564L169.471 240.416L169.471 240.416L167.979 240.564ZM133.578 147.71L133.114 146.283L131.251 146.889L132.322 148.53L133.578 147.71ZM151.602 329.759L150.262 329.086L150.262 329.086L151.602 329.759ZM86.9966 401.733L86.1439 400.499L84.4095 401.698L86.1102 402.943L86.9966 401.733ZM88.61 402.915L87.7236 404.125L88.5846 404.756L89.4627 404.149L88.61 402.915ZM153.773 330.325L152.433 329.651L152.433 329.651L153.773 330.325ZM170.277 240.464L168.785 240.612L168.785 240.612L170.277 240.464ZM135.667 147.031L136.923 146.211L136.295 145.249L135.203 145.604L135.667 147.031ZM1103.3 1850.98L1102.6 1852.31L1104.33 1853.22L1104.76 1851.31L1103.3 1850.98ZM1007.61 1825.51L1007.61 1824.01L1007.61 1824.01L1007.61 1825.51ZM1103.78 1848.84L1105.24 1849.17L1105.49 1848.04L1104.47 1847.51L1103.78 1848.84ZM1007.49 1823.21L1007.5 1821.71L1007.49 1823.21ZM919.591 1848.14L920.388 1849.41L920.388 1849.41L919.591 1848.14ZM853.485 1919.87L852.176 1919.14L851.655 1920.07L852.364 1920.87L853.485 1919.87ZM854.814 1921.36L853.693 1922.36L855.094 1923.94L856.123 1922.1L854.814 1921.36ZM920.359 1850.25L919.562 1848.97L919.562 1848.97L920.359 1850.25ZM22.7561 62.8691C54.9739 88.1801 81.0633 116.932 99.5581 147.465L102.124 145.91C83.417 115.027 57.0705 86.0122 24.6095 60.51L22.7561 62.8691ZM24.5549 59.3466L22.8721 60.4275L24.4934 62.9516L26.1762 61.8708L24.5549 59.3466ZM104.234 145.302C85.4202 114.242 58.9277 85.0683 26.2922 59.4292L24.4389 61.7882C56.831 87.2362 83.0665 116.147 101.668 146.856L104.234 145.302ZM135.892 240.528C133.825 208.72 123.049 176.363 104.234 145.302L101.668 146.856C120.269 177.565 130.867 209.46 132.898 240.723L135.892 240.528ZM116.19 330.598C131.269 302.956 137.959 272.344 135.892 240.528L132.898 240.723C134.929 271.979 128.36 302.025 113.556 329.161L116.19 330.598ZM82.908 374.034C96.4429 360.869 107.62 346.306 116.19 330.598L113.556 329.161C105.14 344.589 94.1496 358.914 80.8162 371.884L82.908 374.034ZM84.676 1739.49L83.3621 372.958L80.3621 372.96L81.676 1739.49L84.676 1739.49ZM110.286 1749.52C103.111 1745.49 93.8096 1741.58 83.6662 1738.07L82.6858 1740.9C92.7358 1744.38 101.854 1748.23 108.816 1752.14L110.286 1749.52ZM173.53 1806.78C155.509 1782.35 134.034 1762.87 110.286 1749.52L108.816 1752.14C132.151 1765.25 153.316 1784.43 171.116 1808.56L173.53 1806.78ZM215.461 1891.92C205.785 1860.15 191.551 1831.22 173.53 1806.78L171.116 1808.56C188.915 1832.7 203.005 1861.32 212.591 1892.79L215.461 1891.92ZM223.077 1922.01C220.998 1911.8 218.457 1901.75 215.461 1891.92L212.591 1892.79C215.559 1902.54 218.077 1912.49 220.138 1922.61L223.077 1922.01ZM887.025 1920.78L221.607 1920.81L221.608 1923.81L887.025 1923.78L887.025 1920.78ZM928.485 1883.91C912.799 1893.76 898.509 1906.33 885.878 1921.32L888.172 1923.25C900.617 1908.49 914.674 1896.13 930.081 1886.45L928.485 1883.91ZM1017.18 1858.72C985.293 1858.61 955.149 1867.16 928.485 1883.91L930.081 1886.45C956.257 1870.01 985.843 1861.61 1017.16 1861.72L1017.18 1858.72ZM1114.17 1884.47C1082.01 1867.6 1049.05 1858.83 1017.18 1858.72L1017.16 1861.72C1048.49 1861.83 1080.98 1870.45 1112.77 1887.13L1114.17 1884.47ZM1204.66 1956.99C1177.07 1925.99 1146.32 1901.34 1114.17 1884.47L1112.77 1887.13C1144.56 1903.81 1175.03 1928.22 1202.42 1958.99L1204.66 1956.99ZM1203.87 1960.47L1204.85 1958.72L1202.23 1957.26L1201.26 1959.01L1203.87 1960.47ZM1112.29 1889.27C1143.9 1905.86 1174.2 1930.13 1201.44 1960.73L1203.69 1958.74C1176.24 1927.91 1145.66 1903.39 1113.69 1886.61L1112.29 1889.27ZM1017.28 1864.01C1048.4 1864.12 1080.68 1872.69 1112.29 1889.27L1113.69 1886.61C1081.71 1869.84 1048.96 1861.12 1017.29 1861.02L1017.28 1864.01ZM930.85 1888.56C956.812 1872.25 986.175 1863.91 1017.28 1864.01L1017.29 1861.02C985.625 1860.91 955.704 1869.4 929.254 1886.02L930.85 1888.56ZM890.815 1923.26C902.773 1909.41 916.194 1897.76 930.85 1888.56L929.254 1886.02C914.33 1895.39 900.684 1907.24 888.544 1921.3L890.815 1923.26ZM1110.14 1920.78L889.679 1920.78L889.679 1923.78L1110.14 1923.78L1110.14 1920.78ZM1111.65 1924.27L1111.64 1922.27L1108.64 1922.28L1108.65 1924.28L1111.65 1924.27ZM887.976 1925.78L1110.15 1925.78L1110.15 1922.78L887.976 1922.78L887.976 1925.78ZM868.507 1954.53C874.749 1943.93 881.641 1934.15 889.124 1925.25L886.828 1923.32C879.232 1932.36 872.244 1942.28 865.922 1953.01L868.507 1954.53ZM1115.91 1952.25L867.214 1952.27L867.214 1955.27L1115.91 1955.25L1115.91 1952.25ZM1117.42 1955.74L1117.41 1953.74L1114.41 1953.76L1114.42 1955.76L1117.42 1955.74ZM866.05 1957.27L1115.92 1957.25L1115.92 1954.25L866.049 1954.27L866.05 1957.27ZM866.892 1957.32C867.044 1957.05 867.197 1956.79 867.349 1956.52L864.75 1955.03C864.595 1955.29 864.44 1955.56 864.286 1955.83L866.892 1957.32ZM866.659 1957.73L866.893 1957.32L864.286 1955.83L864.052 1956.25L866.659 1957.73ZM865.849 1959.17C866.118 1958.69 866.388 1958.21 866.66 1957.73L864.051 1956.25C863.776 1956.73 863.502 1957.22 863.23 1957.71L865.849 1959.17ZM862.089 1957.94L863.419 1959.43L865.659 1957.44L864.33 1955.95L862.089 1957.94ZM862.115 1955.83L861.901 1956.21L864.518 1957.68L864.732 1957.29L862.115 1955.83ZM862.562 1955.03C862.412 1955.3 862.264 1955.56 862.115 1955.83L864.732 1957.29C864.878 1957.03 865.025 1956.77 865.172 1956.51L862.562 1955.03ZM226.708 1957.34L863.867 1957.27L863.867 1954.27L226.708 1954.34L226.708 1957.34ZM230.006 1992.02C230.03 1979.84 229.424 1967.7 228.2 1955.69L225.216 1955.99C226.429 1967.9 227.03 1979.94 227.006 1992.02L230.006 1992.02ZM223.503 1993.51L228.503 1993.52L228.509 1990.52L223.509 1990.51L223.503 1993.51ZM220.19 1956C221.42 1967.9 222.03 1979.93 222.006 1992.01L225.006 1992.01C225.03 1979.83 224.415 1967.69 223.174 1955.69L220.19 1956ZM181.919 1957.35L221.682 1957.34L221.681 1954.34L181.919 1954.35L181.919 1957.35ZM183.419 1956.29L183.419 1955.84L180.419 1955.85L180.419 1956.29L183.419 1956.29ZM183.419 1956.82L183.419 1956.29L180.419 1956.29L180.419 1956.81L183.419 1956.82ZM179.916 1958.31L181.916 1958.32L181.922 1955.32L179.922 1955.31L179.916 1958.31ZM178.419 1955.85C178.419 1956.17 178.419 1956.49 178.419 1956.81L181.419 1956.81C181.419 1956.49 181.419 1956.17 181.419 1955.84L178.419 1955.85ZM47.0785 1957.36L179.919 1957.35L179.919 1954.35L47.0782 1954.36L47.0785 1957.36ZM48.4704 2009.64L48.5784 1955.86L45.5784 1955.86L45.4704 2009.64L48.4704 2009.64ZM44.9674 2011.14L46.9674 2011.14L46.9734 2008.14L44.9734 2008.14L44.9674 2011.14ZM43.5784 1955.86L43.4704 2009.63L46.4704 2009.64L46.5784 1955.86L43.5784 1955.86ZM-25.1582 1957.37L45.0785 1957.36L45.0782 1954.36L-25.1585 1954.37L-25.1582 1957.37ZM-26.6713 1953.88L-26.6583 1955.88L-23.6584 1955.86L-23.6714 1953.86L-26.6713 1953.88ZM45.0822 1952.36L-25.1715 1952.37L-25.1712 1955.37L45.0825 1955.36L45.0822 1952.36ZM43.9309 1780.2L43.5824 1953.86L46.5824 1953.86L46.9309 1780.21L43.9309 1780.2ZM44.4281 1781.69C44.7445 1781.69 45.0678 1781.7 45.3977 1781.71L45.4642 1778.71C45.1156 1778.7 44.7721 1778.69 44.4341 1778.69L44.4281 1781.69ZM42.9351 1778.19L42.9311 1780.19L45.9311 1780.2L45.9351 1778.2L42.9351 1778.19ZM45.4671 1776.71C45.1193 1776.7 44.7762 1776.69 44.4381 1776.69L44.4321 1779.69C44.7494 1779.69 45.073 1779.7 45.4028 1779.7L45.4671 1776.71ZM44.0231 1734.29L43.935 1778.2L46.9349 1778.21L47.0231 1734.3L44.0231 1734.29ZM12.5283 1731.59C21.178 1731.6 32.7702 1733.15 45.2152 1735.76L45.831 1732.82C33.2915 1730.19 21.4745 1728.6 12.5343 1728.59L12.5283 1731.59ZM11.0413 1725.08L11.0313 1730.08L14.0313 1730.09L14.0413 1725.09L11.0413 1725.08ZM45.8359 1727.72C33.4454 1725.17 21.6703 1723.6 12.5444 1723.59L12.5383 1726.59C21.3806 1726.6 32.9358 1728.13 45.2308 1730.66L45.8359 1727.72ZM46.7019 399.65L44.0333 1729.18L47.0333 1729.19L49.7019 399.656L46.7019 399.65ZM48.113 401.496C48.4154 401.301 48.7171 401.107 49.0182 400.911L47.3857 398.394C47.0883 398.587 46.7904 398.78 46.4917 398.971L48.113 401.496ZM44.803 400.178L46.3757 401.413L48.229 399.054L46.6563 397.818L44.803 400.178ZM47.3802 396.133C46.5651 396.671 45.7447 397.206 44.919 397.736L46.5403 400.26C47.3764 399.723 48.2072 399.182 49.0327 398.637L47.3802 396.133ZM47.1641 169.4L46.7065 397.382L49.7065 397.388L50.1641 169.406L47.1641 169.4ZM50.6671 167.907L48.6671 167.903L48.661 170.903L50.661 170.907L50.6671 167.907ZM51.7091 396.052L52.164 169.41L49.1641 169.404L48.7091 396.046L51.7091 396.052ZM78.818 371.007C70.0081 379.561 60.1695 387.519 49.3702 394.805L51.0481 397.292C61.9865 389.912 71.9642 381.843 80.9078 373.159L78.818 371.007ZM78.167 168.305L78.3629 372.084L81.3629 372.081L81.167 168.302L78.167 168.305ZM81.603 166.722L79.6047 166.805L79.7292 169.802L81.7275 169.719L81.603 166.722ZM83.3594 370.115L83.1653 168.219L80.1653 168.222L80.3594 370.118L83.3594 370.115ZM111.406 328.523C103.452 343.102 93.1841 356.685 80.7993 369.055L82.9194 371.178C95.4951 358.616 105.94 344.806 114.04 329.959L111.406 328.523ZM130.598 240.745C132.615 271.789 126.088 301.609 111.406 328.523L114.04 329.959C128.998 302.54 135.645 272.153 133.591 240.551L130.598 240.745ZM99.5581 147.465C118.052 177.997 128.58 209.694 130.598 240.745L133.591 240.551C131.538 208.954 120.832 176.795 102.124 145.91L99.5581 147.465ZM51.0333 399.59C61.9393 392.361 71.9168 384.462 80.8966 375.964L78.8346 373.785C69.9864 382.159 60.1454 389.95 49.3758 397.09L51.0333 399.59ZM49.0325 1729.61L51.7045 398.343L48.7046 398.337L46.0325 1729.6L49.0325 1729.61ZM62.1783 1731.56C57.3925 1730.3 52.5784 1729.15 47.8455 1728.14L47.2195 1731.07C51.9044 1732.07 56.6722 1733.21 61.4135 1734.46L62.1783 1731.56ZM81.6559 1737.38C75.3675 1735.26 68.7787 1733.3 62.1783 1731.56L61.4136 1734.46C67.9534 1736.19 74.4776 1738.13 80.6981 1740.23L81.6559 1737.38ZM78.3656 374.876L79.677 1738.81L82.677 1738.8L81.3656 374.873L78.3656 374.876ZM84.8027 1871.23L84.7225 1787.81L81.7225 1787.82L81.8027 1871.23L84.8027 1871.23ZM81.3667 1872.81L83.365 1872.73L83.2404 1869.73L81.2422 1869.81L81.3667 1872.81ZM79.7235 1787.18L79.8044 1871.31L82.8044 1871.31L82.7235 1787.18L79.7235 1787.18ZM74.857 1786.87C76.8434 1787.42 78.8232 1788 80.7764 1788.61L81.6707 1785.75C79.6859 1785.13 77.6749 1784.53 75.6574 1783.98L74.857 1786.87ZM47.3462 1781.78C54.8726 1782.21 64.8739 1784.1 74.857 1786.87L75.6574 1783.98C65.5564 1781.18 55.3306 1779.23 47.5153 1778.79L47.3462 1781.78ZM48.5824 1953.86L48.9308 1780.29L45.9308 1780.28L45.5824 1953.86L48.5824 1953.86ZM179.907 1952.35L47.0822 1952.36L47.0825 1955.36L179.907 1955.35L179.907 1952.35ZM176.325 1924.51C177.608 1934.17 178.307 1943.99 178.407 1953.86L181.407 1953.83C181.306 1943.84 180.598 1933.9 179.299 1924.12L176.325 1924.51ZM106.148 1925.82L177.812 1925.81L177.812 1922.81L106.148 1922.82L106.148 1925.82ZM104.638 1922.32L104.648 1924.32L107.648 1924.31L107.638 1922.31L104.638 1922.32ZM177.538 1920.81L106.138 1920.82L106.138 1923.82L177.538 1923.81L177.538 1920.81ZM169.334 1891.05C172.285 1901.23 174.531 1911.77 176.053 1922.52L179.023 1922.1C177.483 1911.22 175.207 1900.54 172.215 1890.22L169.334 1891.05ZM143.27 1835.42C154.428 1851.31 163.294 1870.21 169.334 1891.05L172.215 1890.22C166.093 1869.09 157.094 1849.89 145.726 1833.69L143.27 1835.42ZM104.413 1798.42C118.898 1806.97 132.112 1819.52 143.27 1835.42L145.726 1833.69C134.358 1817.5 120.84 1804.63 105.938 1795.83L104.413 1798.42ZM82.759 1789.24C91.2047 1791.99 98.9563 1795.2 104.413 1798.42L105.938 1795.83C100.216 1792.46 92.2339 1789.17 83.686 1786.39L82.759 1789.24ZM885.361 1922.78L222.008 1922.81L222.009 1925.81L885.361 1925.78L885.361 1922.78ZM866.31 1954.53C872.432 1943.95 879.188 1934.17 886.521 1925.24L884.202 1923.33C876.761 1932.4 869.913 1942.31 863.713 1953.02L866.31 1954.53ZM226.498 1955.34L865.012 1955.27L865.011 1952.27L226.498 1952.34L226.498 1955.34ZM220.537 1924.6C222.447 1934.28 223.939 1944.09 225.007 1954L227.99 1953.68C226.912 1943.69 225.407 1933.78 223.48 1924.02L220.537 1924.6ZM215.44 1924.61C217.378 1934.28 218.894 1944.09 219.978 1954.01L222.96 1953.68C221.866 1943.68 220.338 1933.78 218.381 1924.02L215.44 1924.61ZM179.83 1925.81L216.911 1925.81L216.911 1922.81L179.829 1922.81L179.83 1925.81ZM183.407 1953.83C183.307 1943.84 182.605 1933.9 181.317 1924.12L178.342 1924.51C179.615 1934.17 180.308 1943.99 180.407 1953.86L183.407 1953.83ZM221.469 1952.34L181.907 1952.35L181.907 1955.35L221.469 1955.34L221.469 1952.34ZM207.808 1894.25C210.632 1903.52 213.043 1912.99 215.034 1922.62L217.972 1922.01C215.963 1912.3 213.529 1902.74 210.678 1893.38L207.808 1894.25ZM167.092 1811.53C184.523 1835.17 198.371 1863.27 207.808 1894.25L210.678 1893.38C201.152 1862.1 187.158 1833.69 169.506 1809.75L167.092 1811.53ZM106.367 1756.5C129.012 1769.22 149.661 1787.9 167.092 1811.53L169.506 1809.75C151.854 1785.82 130.895 1766.84 107.837 1753.88L106.367 1756.5ZM82.6811 1746.2C91.8625 1749.45 100.089 1752.97 106.367 1756.5L107.837 1753.88C101.354 1750.24 92.9533 1746.65 83.6811 1743.37L82.6811 1746.2ZM84.7205 1785.71L84.6811 1744.78L81.6811 1744.79L81.7205 1785.71L84.7205 1785.71ZM106.955 1794.11C100.929 1790.56 92.5522 1787.13 83.6789 1784.28L82.7621 1787.14C91.5317 1789.96 99.6744 1793.3 105.43 1796.7L106.955 1794.11ZM147.363 1832.54C135.855 1816.15 122.135 1803.07 106.955 1794.11L105.43 1796.7C120.193 1805.41 133.609 1818.17 144.907 1834.27L147.363 1832.54ZM174.136 1889.66C167.96 1868.35 158.871 1848.94 147.363 1832.54L144.907 1834.27C156.205 1850.36 165.16 1869.47 171.255 1890.5L174.136 1889.66ZM181.043 1922.11C179.489 1911.03 177.18 1900.16 174.136 1889.66L171.255 1890.5C174.258 1900.86 176.537 1911.58 178.072 1922.52L181.043 1922.11ZM216.503 1920.81L179.557 1920.81L179.558 1923.81L216.503 1923.81L216.503 1920.81ZM60.139 1739.3C67.1721 1741.15 74.1425 1743.25 80.694 1745.51L81.6702 1742.67C75.0439 1740.39 68.0027 1738.27 60.9037 1736.4L60.139 1739.3ZM47.2039 1736.18C51.4646 1737.11 55.8043 1738.15 60.139 1739.3L60.9037 1736.4C56.5276 1735.24 52.1453 1734.19 47.8406 1733.25L47.2039 1736.18ZM48.9348 1778.29L49.0222 1734.72L46.0222 1734.72L45.9348 1778.28L48.9348 1778.29ZM76.191 1782.05C65.9879 1779.22 55.5601 1777.23 47.517 1776.79L47.3526 1779.78C55.1038 1780.21 65.3049 1782.15 75.3906 1784.94L76.191 1782.05ZM81.6639 1783.65C79.8519 1783.09 78.0227 1782.56 76.191 1782.05L75.3907 1784.94C77.1943 1785.44 78.9955 1785.97 80.7792 1786.52L81.6639 1783.65ZM79.6821 1744.09L79.7215 1785.09L82.7215 1785.08L82.6821 1744.09L79.6821 1744.09ZM169.471 240.416C166.355 208.907 154.572 177.127 134.834 146.89L132.322 148.53C151.834 178.421 163.424 209.746 166.486 240.712L169.471 240.416ZM152.942 330.433C166.969 302.525 172.588 271.932 169.471 240.416L166.486 240.712C169.548 271.67 164.03 301.693 150.262 329.086L152.942 330.433ZM87.8493 402.967C116.783 382.975 138.919 358.336 152.942 330.433L150.262 329.086C136.492 356.483 114.719 380.755 86.1439 400.499L87.8493 402.967ZM89.4964 401.705L87.883 400.523L86.1102 402.943L87.7236 404.125L89.4964 401.705ZM152.433 329.651C138.549 357.275 116.589 381.76 87.7573 401.681L89.4627 404.149C118.653 383.979 140.975 359.128 155.113 330.998L152.433 329.651ZM168.785 240.612C171.867 271.782 166.314 302.033 152.433 329.651L155.113 330.998C169.253 302.865 174.908 272.044 171.77 240.317L168.785 240.612ZM134.41 147.851C154.035 177.915 165.702 209.436 168.785 240.612L171.77 240.317C168.633 208.596 156.773 176.62 136.923 146.211L134.41 147.851ZM134.042 149.136L136.13 148.457L135.203 145.604L133.114 146.283L134.042 149.136ZM1103.99 1849.65C1072.03 1832.86 1039.28 1824.14 1007.61 1824.01L1007.6 1827.01C1038.72 1827.13 1071 1835.71 1102.6 1852.31L1103.99 1849.65ZM1102.31 1848.51L1101.83 1850.65L1104.76 1851.31L1105.24 1849.17L1102.31 1848.51ZM1007.48 1824.71C1038.81 1824.84 1071.29 1833.47 1103.08 1850.17L1104.47 1847.51C1072.32 1830.62 1039.37 1821.84 1007.5 1821.71L1007.48 1824.71ZM920.388 1849.41C946.571 1832.98 976.161 1824.59 1007.48 1824.71L1007.5 1821.71C975.613 1821.59 945.465 1830.13 918.794 1846.87L920.388 1849.41ZM854.794 1920.6C871.901 1890.02 894.2 1865.84 920.388 1849.41L918.794 1846.87C892.127 1863.6 869.496 1888.17 852.176 1919.14L854.794 1920.6ZM855.935 1920.37L854.606 1918.87L852.364 1920.87L853.693 1922.36L855.935 1920.37ZM919.562 1848.97C893.11 1865.57 870.673 1889.94 853.505 1920.63L856.123 1922.1C873.078 1891.78 895.183 1867.81 921.156 1851.52L919.562 1848.97ZM1007.61 1824.01C975.944 1823.89 946.019 1832.37 919.562 1848.97L921.156 1851.52C947.126 1835.22 976.492 1826.89 1007.6 1827.01L1007.61 1824.01Z" fill="url(#paint1_linear_307_298)"/>
</g>
<rect x="2.50095" y="1.06265" width="1434" height="1990" transform="rotate(0.115002 2.50095 1.06265)" stroke="black"/>
<defs>
<linearGradient id="paint0_linear_307_298" x1="845.689" y1="1930.99" x2="859.221" y2="-11.9515" gradientUnits="userSpaceOnUse">
<stop stop-color="#FFD644"/>
<stop offset="1" stop-color="#FFE895"/>
</linearGradient>
<linearGradient id="paint1_linear_307_298" x1="592.986" y1="61.748" x2="589.074" y2="2010.73" gradientUnits="userSpaceOnUse">
<stop stop-color="#FFD644"/>
<stop offset="1" stop-color="#FFE895"/>
</linearGradient>
<clipPath id="clip0_307_298">
<rect x="1423.36" y="1995.01" width="1409" height="1985" transform="rotate(-179.601 1423.36 1995.01)" fill="white"/>
</clipPath>
<clipPath id="clip1_307_298">
<rect x="2.00195" y="0.561646" width="1435" height="1991" transform="rotate(0.115002 2.00195 0.561646)" fill="white"/>
</clipPath>
</defs>
</svg>
