<svg width="553" height="305" viewBox="0 0 553 305" fill="none" xmlns="http://www.w3.org/2000/svg">
<path fill-rule="evenodd" clip-rule="evenodd" d="M553 21C550.242 21 547.511 20.4568 544.964 19.4015C543.935 18.9754 542.944 18.4691 542 17.8885V100.138L552 90.2935V21.0002H553V90.7112L553.001 90.7117L553 90.7123V91.0002H552.708L542 101.541V144.181L552.942 155H553V285H552V285.011C549.375 285.011 546.776 285.528 544.35 286.532C543.541 286.868 542.756 287.255 542 287.692V294V295H541H534.692C534.255 295.756 533.867 296.541 533.532 297.351C532.527 299.776 532.01 302.375 532.01 305H532H531H22H20.9896C20.9896 302.375 20.4725 299.776 19.4679 297.351C19.1325 296.541 18.7449 295.756 18.3082 295H12H11V294V287.692C10.2444 287.255 9.45938 286.868 8.64967 286.532C6.22443 285.528 3.62507 285.011 0.999999 285.011V284C3.75776 284 6.48851 284.544 9.03635 285.599C9.70788 285.877 10.3632 286.189 11 286.534V145.827L2 154.701V284H0.999998V154.295L0.99353 154.289L0.999998 154.282V154H1.28644L11 144.422V99.8716L0.999998 90V20H0.999999V19.9898C3.62506 19.9898 6.22443 19.4728 8.64967 18.4682C9.45938 18.1328 10.2444 17.7453 11 17.3087V11V10H12H18.3086C18.7451 9.24446 19.1326 8.45953 19.4679 7.64992C20.4725 5.22467 20.9896 2.62531 20.9896 0.000244141H22H532V1.00024H22V0.00919488C21.9988 2.76391 21.4557 5.49151 20.4015 8.0366C20.1234 8.70804 19.8111 9.36331 19.4663 10H534.534C534.189 9.36324 533.877 8.70788 533.599 8.03635C532.543 5.48859 532 2.75792 532 0.000244141V0H533.01C533.01 2.62506 533.527 5.22443 534.532 7.64967C534.867 8.45938 535.255 9.24438 535.692 10H542V11V16.6908C543.055 17.3863 544.177 17.9819 545.35 18.4679C547.776 19.4725 550.375 19.9896 553 19.9896V21ZM541 15.9869V11H536.309C537.051 12.1259 537.907 13.1766 538.865 14.1348C539.534 14.8032 540.247 15.4219 541 15.9869ZM535.111 11H18.8887C18.0314 12.3942 17.012 13.6868 15.8492 14.8495C14.6866 16.0122 13.3942 17.0315 12 17.8888V99.4536L34.9565 122.115L34.9239 122.148L34.9684 122.193L12 144.841V287.112C13.3942 287.969 14.6866 288.988 15.8492 290.151C17.0118 291.314 18.0311 292.606 18.8883 294H534.112C534.969 292.606 535.988 291.314 537.151 290.151C538.313 288.988 539.606 287.969 541 287.112V144.599L519.012 122.858L519.044 122.825L519 122.78L541 101.122V17.2337C539.984 16.5263 539.03 15.7288 538.151 14.8492C536.988 13.6866 535.969 12.3942 535.111 11ZM541 102.526L520.39 122.815L541 143.192V102.526ZM542 145.587V286.534C542.637 286.189 543.292 285.877 543.964 285.599C546.511 284.544 549.242 284 552 284V155.475L542 145.587ZM541 288.31C539.874 289.052 538.823 289.907 537.865 290.866C536.907 291.824 536.051 292.874 535.309 294H541V288.31ZM533.534 295H19.466C19.8109 295.637 20.1233 296.292 20.4015 296.964C21.4557 299.509 21.9988 302.237 22 304.991V304H531.024C531.139 301.584 531.671 299.203 532.599 296.964C532.877 296.292 533.189 295.637 533.534 295ZM17.6905 294C16.9486 292.874 16.0928 291.824 15.1347 290.866C14.1766 289.907 13.1259 289.052 12 288.31V294H17.6905ZM12 143.436L33.5781 122.16L12 100.859V143.436ZM11 98.4664V18.4664C10.3632 18.8113 9.70788 19.1236 9.03635 19.4017C6.79692 20.3293 4.41618 20.8612 2 20.9764V89.582L11 98.4664ZM12 16.691C13.1259 15.949 14.1766 15.0931 15.1347 14.135C16.0929 13.1768 16.9489 12.126 17.6909 11H12V16.691Z" fill="url(#paint0_linear_114_18)"/>
<defs>
<linearGradient id="paint0_linear_114_18" x1="609.5" y1="-39" x2="-102.5" y2="383.5" gradientUnits="userSpaceOnUse">
<stop stop-color="#E9B369"/>
<stop offset="1" stop-color="#AA7646"/>
</linearGradient>
</defs>
</svg>
