<svg width="64" height="69" viewBox="0 0 64 69" fill="none" xmlns="http://www.w3.org/2000/svg">
<path d="M4.33993 21.6289C1.9036 26.0445 0.517578 31.1012 0.517578 36.4783C0.517578 41.8554 1.9036 46.9167 4.33993 51.3323V21.6289Z" fill="#56B368"/>
<path d="M32.2568 5.27612C29.6814 5.27612 27.1827 5.58715 24.7849 6.15266V11.0632C27.1588 10.394 29.6622 10.0264 32.2568 10.0264C47.1146 10.0264 59.1618 21.8315 59.1618 36.3982C59.1618 42.9581 56.7111 48.9573 52.6681 53.5709L51.9009 56.2617L50.2031 62.2184C58.5336 56.5963 64.001 47.1663 64.001 36.4828C63.9961 19.2443 49.786 5.27612 32.2568 5.27612Z" fill="#56B368"/>
<path d="M24.7849 52.6709H49.1288H49.6612C53.7809 48.439 56.318 42.7083 56.318 36.3983C56.318 23.3727 45.5463 12.8164 32.2568 12.8164C29.6478 12.8164 27.1395 13.2311 24.7849 13.9804V52.6709Z" fill="#448D52"/>
<path d="M21.9073 0.997314H3.79785L7.21734 7.97667V61.7333L3.79785 68.7079H45.3593L49.1289 55.4984H21.9073V0.997314Z" fill="#49D164"/>
</svg>
