<svg width="73" height="72" viewBox="0 0 73 72" fill="none" xmlns="http://www.w3.org/2000/svg">
<path d="M72.243 0C71.9169 0.66831 71.6334 1.36081 71.2615 2.00191C68.9052 6.04805 66.5154 10.0912 64.214 14.1706C63.6927 15.0959 63.0892 15.3802 62.0528 15.3802C56.4745 15.3318 50.8932 15.359 45.1168 15.359V53.6523C43.8183 53.4104 42.7331 53.2924 41.6937 53.0051C36.7494 51.6262 32.299 49.2493 28.2327 46.1799C27.748 45.817 27.4402 44.931 27.4371 44.2838C27.3853 35.3267 27.4036 26.3725 27.4036 17.4154V15.4377C26.7939 15.4074 26.2788 15.359 25.7453 15.359C20.8225 15.359 15.8996 15.2985 10.9797 15.3893C9.49218 15.4165 8.63258 15.0324 7.88882 13.6716C5.67275 9.60431 3.2738 5.63376 0.935806 1.63297C0.664514 1.16727 0.304823 0.74391 0 0.302403C0.44525 0.154053 0.905026 0.0526917 1.3717 0C24.9914 0 48.6152 0 72.243 0Z" fill="#EAE3D2"/>
<path d="M16.8751 56.4548C17.5823 56.8147 18.2986 57.1564 18.9875 57.5435C25.5534 61.2267 32.3357 64.3838 39.8374 65.7083C41.075 65.9261 42.3644 65.8626 43.6325 65.9291L43.8062 65.2699C42.9436 64.8707 42.1114 64.3959 41.2183 64.0844C32.5134 61.0979 24.4378 56.5452 17.3964 50.6547C13.5373 47.422 10.0806 43.8235 7.49266 39.4658C5.98684 36.9226 4.83156 34.2524 4.86204 31.2254C4.89252 28.5642 5.98379 26.4202 8.25777 24.9989C12.1625 22.5525 16.363 22.5343 20.7281 23.8316C20.4812 23.8588 20.2343 23.8981 19.9843 23.9102C19.7249 23.8873 19.4643 23.8802 19.204 23.8891C17.1159 24.2217 14.9364 24.3003 12.9703 24.9777C10.3001 25.8849 9.11737 28.28 9.61728 31.0258C9.86224 32.3589 10.2856 33.6535 10.8762 34.8754C11.5417 36.2889 12.3747 37.6188 13.3575 38.8368C21.5511 48.6498 31.7261 55.5295 44.2452 58.6684C46.9097 59.2801 49.6593 59.4406 52.3778 59.1432C57.2245 58.6835 59.3034 55.1 57.5385 50.5791C56.8709 48.8675 55.7675 47.3162 54.8469 45.7014C54.536 45.2484 54.2831 44.7587 54.094 44.2438C56.0266 45.2054 57.3952 46.7689 58.6145 48.4442C59.8338 50.1195 60.9342 51.8916 62.0864 53.6213L62.6077 53.4943C62.6077 52.7564 62.8272 51.9339 62.5681 51.3019C61.6536 49.0792 60.8702 46.7174 59.4894 44.7942C57.4135 41.9002 54.8774 39.3298 52.5272 36.6293C52.0883 36.1243 51.6127 35.6616 51.3506 34.9207C51.7587 35.0672 52.156 35.2421 52.5394 35.4439C59.1053 39.4386 64.2598 44.7458 67.4757 51.7283C68.3244 53.6085 68.9031 55.5975 69.1949 57.6372C70.1094 63.7851 67.0429 68.6144 61.0988 70.6708C56.2064 72.3642 51.1982 72.1828 46.1991 71.2756C36.4587 69.575 27.2805 65.5526 19.4539 59.5544C18.5926 58.8513 17.7704 58.1023 16.9909 57.3106C16.8388 57.1187 16.7136 56.9071 16.6191 56.6816L16.8751 56.4548Z" fill="#EAE3D2"/>
</svg>
